<svg xmlns="http://www.w3.org/2000/svg" version="1.1" xmlns:xlink="http://www.w3.org/1999/xlink" width="512" height="512" x="0" y="0" viewBox="0 0 24 24" style="enable-background:new 0 0 512 512" xml:space="preserve" class=""><g><path fill="#04c5bf" d="M2 21h8a1 1 0 1 0 0-2H3.071A7.011 7.011 0 0 1 10 13a5.044 5.044 0 1 0-3.377-1.337A9.01 9.01 0 0 0 1 20a1 1 0 0 0 1 1zm8-16a3 3 0 1 1 0 6 3 3 0 0 1 0-6zm13 11a1 1 0 0 1-1 1h-3v3a1 1 0 0 1-2 0v-3h-3a1 1 0 1 1 0-2h3v-3a1 1 0 0 1 2 0v3h3a1 1 0 0 1 1 1z" opacity="1" data-original="#000000" class=""></path></g></svg>