<?xml version="1.0" encoding="utf-8"?>
<svg width="800px" height="800px" viewBox="0 0 24 24" fill="none" xmlns="http://www.w3.org/2000/svg">
  <g id="SVGRepo_bgCarrier" stroke-width="0"/>
  <g id="SVGRepo_tracerCarrier" stroke-linecap="round" stroke-linejoin="round"/>
  <g id="SVGRepo_iconCarrier">
    <path d="M 18 12 L 18 21 L 12 15 L 6 21 L 6 17 M 18 12.01 L 18 6 C 18 4.895 17.105 4 16 4 L 8 4 C 6.895 4 6 4.895 6 6 L 6 17.071" stroke="#04c5bf" stroke-width="1.5" stroke-linecap="round" stroke-linejoin="round"/>
    <path d="M 17.21 11.242 L 17.21 18.601 L 12.121 13.694 L 7.033 18.601 L 7.033 15.33 M 17.21 11.25 L 17.21 6.335 C 17.21 5.431 16.451 4.7 15.514 4.7 L 8.729 4.7 C 7.793 4.7 7.033 5.431 7.033 6.335 L 7.033 15.388" stroke="#04c5bf" stroke-width="1.5" stroke-linecap="round" stroke-linejoin="round" style=""/>
    <path d="M 16.724 11.24 L 16.724 17.264 L 12.106 13.247 L 7.489 17.264 L 7.489 14.586 M 16.724 11.246 L 16.724 7.223 C 16.724 6.483 16.035 5.885 15.185 5.885 L 9.028 5.885 C 8.179 5.885 7.489 6.483 7.489 7.223 L 7.489 14.634" stroke="#04c5bf" stroke-width="1.5" stroke-linecap="round" stroke-linejoin="round" style=""/>
    <path d="M 15.782 10.919 L 15.782 15.624 L 12.076 12.487 L 8.37 15.624 L 8.37 13.532 M 15.782 10.923 L 15.782 7.781 C 15.782 7.203 15.229 6.736 14.547 6.736 L 9.605 6.736 C 8.924 6.736 8.37 7.203 8.37 7.781 L 8.37 13.569" stroke="#04c5bf" stroke-width="1.5" stroke-linecap="round" stroke-linejoin="round" style=""/>
    <path d="M 15.782 10.744 L 15.782 13.953 L 12.076 11.813 L 8.37 13.953 L 8.37 12.526 M 15.782 10.747 L 15.782 8.603 C 15.782 8.209 15.229 7.89 14.547 7.89 L 9.605 7.89 C 8.924 7.89 8.37 8.209 8.37 8.603 L 8.37 12.551" stroke="#04c5bf" stroke-width="1.5" stroke-linecap="round" stroke-linejoin="round" style=""/>
    <path d="M 15.782 10.611 L 15.782 12.373 L 12.076 11.198 L 8.37 12.373 L 8.37 11.59 M 15.782 10.613 L 15.782 9.436 C 15.782 9.22 15.229 9.044 14.547 9.044 L 9.605 9.044 C 8.924 9.044 8.37 9.22 8.37 9.436 L 8.37 11.604" stroke="#04c5bf" stroke-width="1.5" stroke-linecap="round" stroke-linejoin="round" style=""/>
    <path d="M 15.782 11.073 L 15.782 11.887 L 12.076 11.344 L 8.37 11.887 L 8.37 11.525 M 15.782 11.075 L 15.782 10.532 C 15.782 10.431 15.229 10.35 14.547 10.35 L 9.605 10.35 C 8.924 10.35 8.37 10.431 8.37 10.532 L 8.37 11.532" stroke="#04c5bf" stroke-width="1.5" stroke-linecap="round" stroke-linejoin="round" style=""/>
  </g>
</svg>