<?xml version="1.0" encoding="utf-8"?>
<svg width="800px" height="800px" viewBox="0 0 24 24" fill="none" xmlns="http://www.w3.org/2000/svg">
  <g id="SVGRepo_bgCarrier" stroke-width="0"/>
  <g id="SVGRepo_tracerCarrier" stroke-linecap="round" stroke-linejoin="round"/>
  <g id="SVGRepo_iconCarrier" transform="matrix(1, 0, 0, 1, 0, 0.243038)">
    <path d="M12 22C17.5228 22 22 17.5228 22 12C22 6.47715 17.5228 2 12 2C6.47715 2 2 6.47715 2 12C2 17.5228 6.47715 22 12 22Z" stroke="#04c5bf" stroke-width="1.5" stroke-linecap="round" stroke-linejoin="round"/>
    <path d="M 12.33 17.45 C 12.15 17.51 11.84 17.51 11.66 17.45 C 10.1 16.92 6.6 14.69 6.6 10.91 C 6.6 9.24 7.94 7.89 9.6 7.89 C 10.58 7.89 11.389 8.36 11.939 9.1 C 12.479 8.37 13.42 7.89 14.4 7.89 C 16.06 7.89 17.4 9.24 17.4 10.91 C 17.4 14.69 13.9 16.92 12.33 17.45 Z" stroke-width="1.5" stroke-linecap="round" stroke-linejoin="round" stroke="#04c5bf"/>
    <path d="M 12.21 16.035 C 12.073 16.082 11.829 16.09 11.695 16.034 C 10.575 15.566 7.984 13.935 7.912 11.266 C 7.879 10.05 8.861 9.069 10.138 9.072 C 10.892 9.073 11.513 9.416 11.934 9.956 C 12.602 9.472 13.105 9.082 13.831 9.078 C 15.108 9.07 16.308 10.204 16.099 11.402 C 15.641 14.024 13.361 15.636 12.21 16.035 Z" stroke-width="1.5" stroke-linecap="round" stroke-linejoin="round" style="stroke: rgb(197, 4, 4); transform-origin: 11.97px 12.571px;"/>
    <path d="M 12.218 15.103 C 12.116 15.134 11.94 15.134 11.838 15.103 C 10.954 14.829 8.97 13.678 8.97 11.728 C 8.97 10.866 9.73 10.169 10.67 10.169 C 11.226 10.169 11.684 10.412 11.996 10.794 C 12.487 10.45 12.856 10.173 13.391 10.169 C 14.332 10.162 15.092 10.866 15.092 11.728 C 15.092 13.678 13.108 14.829 12.218 15.103 Z" stroke-width="1.5" stroke-linecap="round" stroke-linejoin="round" style="stroke: rgb(197, 4, 4);"/>
    <path d="M 12.24 14.534 C 12.176 14.553 12.065 14.553 12 14.534 C 11.441 14.364 10.185 13.65 10.185 12.441 C 10.185 11.907 10.666 11.474 11.261 11.474 C 11.613 11.474 11.903 11.625 12.1 11.862 C 12.411 11.649 12.644 11.477 12.982 11.474 C 13.578 11.47 14.059 11.907 14.059 12.441 C 14.059 13.65 12.803 14.364 12.24 14.534 Z" stroke-width="1.5" stroke-linecap="round" stroke-linejoin="round" style="stroke: rgb(197, 4, 4);"/>
    <path d="M 12.257 13.288 C 12.184 13.308 12.057 13.308 11.983 13.288 C 11.345 13.103 9.912 12.325 9.912 11.009 C 9.912 10.427 10.461 9.956 11.14 9.956 C 11.541 9.956 11.872 10.12 12.097 10.378 C 12.452 10.146 12.718 9.959 13.104 9.956 C 13.784 9.951 14.333 10.427 14.333 11.009 C 14.333 12.325 12.9 13.103 12.257 13.288 Z" stroke-width="1.5" stroke-linecap="round" stroke-linejoin="round" style="stroke: rgb(197, 4, 4);"/>
  </g>
</svg>