<!DOCTYPE svg PUBLIC "-//W3C//DTD SVG 1.1//EN" "http://www.w3.org/Graphics/SVG/1.1/DTD/svg11.dtd">
<!-- Uploaded to: SVG Repo, www.svgrepo.com, Transformed by: SVG Repo Mixer Tools -->
<svg fill="#04c3bd" width="800px" height="800px" viewBox="0 0 24 24" xmlns="http://www.w3.org/2000/svg">
<g id="SVGRepo_bgCarrier" stroke-width="0"/>
<g id="SVGRepo_tracerCarrier" stroke-linecap="round" stroke-linejoin="round"/>
<g id="SVGRepo_iconCarrier">
<path d="M19,9a4,4,0,1,0-4-4,3.931,3.931,0,0,0,.177,1.112L8.061,9.456a4,4,0,1,0,0,5.088l7.116,3.344A3.931,3.931,0,0,0,15,19a4.01,4.01,0,1,0,1.194-2.845L8.925,12.74a3.683,3.683,0,0,0,0-1.479l7.269-3.416A3.989,3.989,0,0,0,19,9Zm0-6a2,2,0,1,1-2,2A2,2,0,0,1,19,3ZM5,14a2,2,0,1,1,2-2A2,2,0,0,1,5,14Zm14,3a2,2,0,1,1-2,2A2,2,0,0,1,19,17Z"/>
</g>
</svg>