<svg xmlns="http://www.w3.org/2000/svg" version="1.1" xmlns:xlink="http://www.w3.org/1999/xlink" width="512" height="512" x="0" y="0" viewBox="0 0 100 100" style="enable-background:new 0 0 512 512" xml:space="preserve" class=""><g><path d="M5 30.5h67.93c7.44 0 13.49-6.05 13.49-13.49S80.36 3.53 72.93 3.53H16.99C9.55 3.53 3.5 9.58 3.5 17.02V29c0 .83.67 1.5 1.5 1.5zm1.5-13.48c0-5.78 4.71-10.49 10.49-10.49h55.94c5.78 0 10.49 4.7 10.49 10.49S78.71 27.5 72.93 27.5H6.5zM83.07 36.36H27.13c-7.44 0-13.49 6.05-13.49 13.49s6.05 13.49 13.49 13.49h67.93c.83 0 1.5-.67 1.5-1.5v-12c0-7.43-6.05-13.48-13.49-13.48zm10.49 23.97H27.13c-5.78 0-10.49-4.7-10.49-10.49s4.7-10.49 10.49-10.49h55.94c5.78 0 10.49 4.7 10.49 10.49zM5 96.15h67.93c7.44 0 13.49-6.05 13.49-13.49s-6.05-13.49-13.49-13.49H16.99c-7.44 0-13.49 6.05-13.49 13.49v11.99c0 .83.67 1.5 1.5 1.5zm1.5-13.48c0-5.78 4.71-10.49 10.49-10.49h55.94c5.78 0 10.49 4.7 10.49 10.49s-4.7 10.49-10.49 10.49H6.5z" fill="#04c5bf" opacity="1" data-original="#000000"></path></g></svg>