<svg xmlns="http://www.w3.org/2000/svg" version="1.1" xmlns:xlink="http://www.w3.org/1999/xlink" width="512" height="512" x="0" y="0" viewBox="0 0 512 512" style="enable-background:new 0 0 512 512" xml:space="preserve" class=""><g><path d="M437.094 201.094C485.398 152.789 512 88.563 512 20.25V20c0-11.047-8.953-20-20-20h-.25c-68.313 0-132.54 26.602-180.844 74.906-23.742 23.746-42.23 51.344-54.906 81.38-12.676-30.036-31.16-57.634-54.906-81.38C152.789 26.602 88.563 0 20.25 0H20C8.953 0 0 8.953 0 20v.25c0 68.313 26.602 132.54 74.906 180.844 43.621 43.62 100.223 69.535 161.094 74.152v121.242c-79.785 3.735-159.156 29.938-227.68 79.282-8.965 6.453-10.996 18.953-4.543 27.914 3.91 5.43 10.036 8.316 16.246 8.316 4.086 0 229.704-169.813 460.282-3.77 8.965 6.454 21.46 4.418 27.914-4.542 6.457-8.965 4.422-21.465-4.54-27.918-64.956-46.774-143.511-75.34-227.679-79.282V275.246c60.871-4.617 117.473-30.531 161.094-74.152zM339.19 103.19c35.825-35.824 82.028-57.5 131.832-62.214-4.714 49.804-26.39 96.007-62.214 131.832-35.825 35.824-82.032 57.5-131.832 62.214 4.714-49.8 26.39-96.007 62.214-131.832zm-236 69.618c-35.824-35.825-57.5-82.032-62.214-131.832 49.8 4.714 96.007 26.39 131.832 62.214 35.824 35.825 57.5 82.032 62.214 131.832-49.8-4.714-96.007-26.39-131.832-62.214zm0 0" fill="#04c5bf" opacity="1" data-original="#000000" class=""></path></g></svg>