<?xml version="1.0"?>
<svg width="300" height="300" xmlns="http://www.w3.org/2000/svg" xmlns:svg="http://www.w3.org/2000/svg" enable-background="new 0 0 512 512" version="1.1" xml:space="preserve">
 <g class="layer">
  <title>Layer 1</title>
  <path d="m-435.84,-92.18a0.57,1.05 0 0 0 0.57,-1.05l-0.01,-3.15a0.57,1.05 0 0 0 -1.14,0.01l0.01,3.15a0.57,1.05 0 0 0 0.57,1.05zm0,2.1a0.57,1.05 0 0 0 -0.57,1.05l0.01,3.15a0.57,1.05 0 0 0 1.14,-0.01l-0.01,-3.15a0.57,1.05 0 0 0 -0.57,-1.05zm-2.86,0.01l1.72,-0.01a0.57,1.05 0 0 0 0,-2.1l-1.72,0.01a0.57,1.05 0 0 0 0,2.1zm4.01,-0.02l1.72,-0.01a0.57,1.05 0 0 0 0,-2.1l-2.3,-1a0.57,1.05 0 0 0 0.58,3.11zm71.76,61.06l0.01,3.15a0.57,1.05 0 0 0 1.14,-0.01l-0.01,-3.15a0.57,1.05 0 0 0 -1.14,0.01zm0.58,6.29a0.57,1.05 0 0 0 -0.57,1.05l0.01,3.15a0.57,1.05 0 0 0 1.14,-0.01l-0.01,-3.15a0.57,1.05 0 0 0 -0.57,-1.05zm-1.15,-2.09l-1.72,0.01a0.57,1.05 0 0 0 0,2.1l1.72,-0.01a0.57,1.05 0 0 0 0,-2.1zm4.01,-0.02l-1.72,0.01a0.57,1.05 0 0 0 0,2.1l1.72,-0.01a0.57,1.05 0 0 0 0,-2.1zm3.08,-41.98c1.1,-0.01 2,-1.66 2,-3.68s-0.9,-3.67 -2.01,-3.66s-2,1.66 -2,3.68s0.9,3.67 2.01,3.66zm-0.01,-5.25c0.47,0 0.86,0.7 0.86,1.57s-0.38,1.58 -0.86,1.58s-0.86,-0.7 -0.86,-1.57s0.38,-1.58 0.86,-1.58zm-28.55,45.25c-1.1,0.01 -2,1.66 -2,3.68s0.9,3.67 2.01,3.66s2,-1.66 2,-3.68s-0.9,-3.67 -2.01,-3.66zm0.01,5.25c-0.47,0 -0.86,-0.7 -0.86,-1.57s0.38,-1.58 0.86,-1.58s0.86,0.7 0.86,1.57s-0.38,1.58 -0.86,1.58z" data-original="#000000" fill="#b00000" id="svg_2"/>
  <path d="m190.57,173.23a4.94,5.18 0 0 0 -6.89,1.22c-4.46,6.58 -12.25,16.4 -24.1,25.82a4.94,5.18 0 1 0 5.97,8.26c10.17,-8.08 19.23,-17.78 26.2,-28.08a4.94,5.18 0 0 0 -1.17,-7.23z" data-original="#000000" fill="#b00000" id="svg_9"/>
  <path d="m527,50c0.01,1.81 0.25,2.71 1,3.17c0.73,0.44 1.5,0.82 2.4,0.83c0.9,0.01 1.92,0.2 2.6,-0.33c0.67,-0.53 1.04,-1.47 1.48,-2.15c0.51,-0.79 0.52,-1.72 0.52,-2.62c0,-0.9 0.49,-1.9 -0.09,-2.61c-0.6,-0.74 -1.71,-0.29 -2.61,-0.29c-0.82,0 -1.79,0 -2.51,0c-0.99,0 -1.79,0 -2.79,0c-0.81,0 -1.69,-0.01 -2.68,0c-0.82,0.01 -1.65,0.02 -2.63,0.28c-0.7,0.19 -1.36,0.53 -2.37,0.91c-0.79,0.31 -1.61,0.49 -2.5,1.1c-0.89,0.6 -1.34,1.17 -2.01,1.9c-0.54,0.58 -0.81,1.5 -0.8,2.4c0.01,0.88 0.61,1.39 1.52,1.4c0.96,0.01 1.65,0 2.72,0c0.86,0 1.57,0 2.53,0c0.73,0 1.9,0 2.73,0c0.83,0 1.75,0 2.49,0l1.03,0" fill="none" id="svg_15" stroke="#000000" stroke-width="5"/>
  <path d="m551,32c1,1 1.02,1.82 1.29,2.77c0.21,0.76 0.4,1.29 0.81,2.31c0.38,0.95 0.71,1.69 1,2.56c0.22,0.66 0.38,1.39 0.79,2.47c0.4,1.08 0.76,1.73 1.14,2.38c0.38,0.66 0.99,1.66 1.38,2.38c0.4,0.74 0.78,1.49 1.12,2.23c0.48,1.06 0.73,1.73 0.99,2.36c0.38,0.92 0.8,1.83 1.34,2.71c0.36,0.58 0.74,1.15 1.56,2.13c0.58,0.68 1,1.08 1.8,1.89c0.59,0.59 1.12,1.16 1.91,1.91c0.57,0.54 1.21,1.7 1.89,1.47c0.84,-0.29 0,-1.79 0,-2.69c0,-0.9 -0.01,-1.75 -0.52,-2.4c-0.6,-0.77 -1.22,-1.36 -1.88,-1.89c-0.74,-0.6 -1.75,-0.44 -2.6,-0.78c-0.7,-0.28 -1.48,-0.79 -2.4,-0.83c-1,-0.05 -1.66,0 -2.45,0c-1.01,0 -1.81,0 -2.69,0c-0.91,0 -1.38,0 -2.74,0c-0.86,0 -1.7,0 -2.52,0.06c-1.21,0.08 -2.01,0.22 -2.84,0.38c-0.88,0.17 -1.34,0.28 -2.87,0.56c-0.56,0.1 -1.15,0.2 -2.4,0.41c-0.64,0.11 -1.3,0.22 -1.96,0.35c-0.66,0.12 -2.62,0.56 -3.26,0.73c-0.63,0.17 -1.25,0.34 -2.47,0.76c-0.61,0.21 -1.22,0.42 -2.41,0.92c-1.21,0.5 -1.8,0.79 -2.4,1.06c-0.6,0.27 -1.2,0.56 -2.4,1.09c-1.2,0.53 -1.8,0.77 -2.4,1c-1.19,0.46 -1.78,0.68 -2.37,0.91c-0.58,0.23 -2.27,0.94 -2.81,1.2c-0.54,0.26 -1.57,0.79 -2.06,1.06c-0.95,0.51 -1.38,0.78 -2.62,1.38c-0.71,0.35 -1.72,0.65 -2.61,1.31c-0.57,0.42 -1.47,1.15 -1.29,2.19c0.13,0.77 1.32,0.69 1.97,1.15c0.67,0.47 1.58,0.5 2.58,0.5c0.8,0 1.8,0 2.44,0c0.73,0 1.93,0.01 2.63,-0.01c0.75,-0.02 1.53,-0.04 2.73,-0.21c0.81,-0.11 1.62,-0.3 2.46,-0.48c1.31,-0.29 1.76,-0.4 2.7,-0.6c0.95,-0.2 1.42,-0.3 2.36,-0.5c1.36,-0.3 2.23,-0.5 2.66,-0.61c0.85,-0.22 1.71,-0.46 3.05,-0.91c0.46,-0.16 1.39,-0.5 2.32,-0.85c0.45,-0.17 1.73,-0.65 2.49,-0.94c0.69,-0.26 1.66,-0.62 2.41,-1.22c0.77,-0.61 1.15,-1.19 1.56,-1.72c0.8,-1.03 1.41,-1.69 1.73,-2.14c0.69,-0.97 0.85,-1.81 0.87,-2.81c0.02,-0.81 0.01,-1.46 0,-2.68c-0.01,-0.82 0.04,-1.38 -0.28,-2.63c-0.18,-0.7 -0.51,-1.37 -0.92,-2.37c-0.34,-0.84 -0.57,-1.45 -1.13,-2.31c-0.4,-0.62 -1.16,-1.46 -1.66,-1.99c-0.66,-0.69 -1.3,-1.4 -2.17,-2.01c-0.64,-0.45 -1.26,-0.72 -2.03,-1.32c-0.81,-0.62 -1.26,-1.22 -2.17,-1.62c-0.91,-0.4 -1.59,-0.68 -2.6,-0.94c-0.81,-0.21 -1.79,-0.12 -2.54,-0.12c-0.8,0 -1.8,0 -2.7,0c-0.94,0 -1.73,-0.03 -2.59,0.04c-1.19,0.09 -1.8,0.22 -2.69,0.51c-0.61,0.2 -1.8,0.77 -2.4,1.11c-0.6,0.34 -1.49,0.88 -2.4,1.33c-0.59,0.29 -1.49,0.64 -2.01,0.99c-1.06,0.71 -1.43,1.3 -2.08,2.03c-0.78,0.88 -1.41,1.34 -2,1.75c-0.81,0.56 -1.4,1.07 -1.94,1.6c-0.78,0.76 -1.43,1.28 -2.05,2.05c-0.6,0.74 -0.7,1.7 -0.61,2.6c0.08,0.85 0.97,1.21 1.6,1.57c0.86,0.49 1.7,0.78 2.4,1.43c0.52,0.48 1.49,0.88 2.17,1.03c0.96,0.21 1.61,0.71 2.6,0.89c0.76,0.14 1.63,0.08 2.53,0.09c0.9,0 1.8,0 2.7,0c0.9,0 1.84,0 2.49,0c1.04,0 1.77,0.02 2.93,-0.04c0.79,-0.04 1.99,-0.17 2.78,-0.33c0.79,-0.16 1.56,-0.36 2.64,-0.81c0.69,-0.29 1.32,-0.65 1.92,-1.01c1.09,-0.65 1.81,-1.03 2.4,-1.45c0.87,-0.63 1.34,-1.39 1.65,-1.98c0.52,-0.99 0.91,-1.78 1.08,-2.6c0.16,-0.79 0.12,-1.8 0.12,-2.6c0,-0.8 0.2,-1.86 -0.17,-2.71c-0.35,-0.83 -1.06,-1.24 -1.81,-1.96c-0.58,-0.56 -1.56,-0.47 -2.32,-0.87c-0.85,-0.45 -1.7,-0.65 -2.46,-0.65c-0.9,0 -1.7,-0.01 -2.66,0c-0.81,0.01 -1.69,0.02 -2.58,0.17c-0.91,0.15 -1.84,0.45 -2.49,0.63c-1.04,0.3 -1.77,0.49 -2.51,0.72c-0.75,0.23 -1.84,0.63 -2.52,0.96c-1,0.49 -1.62,0.9 -2.65,1.35c-0.71,0.31 -1.46,0.54 -2.21,0.79c-0.74,0.25 -1.81,0.68 -2.47,1.03c-0.96,0.52 -1.56,0.94 -2.46,1.54c-0.6,0.4 -1.47,0.99 -2.01,1.4c-0.77,0.59 -1.46,1.19 -2.08,1.8c-0.81,0.79 -1.36,1.41 -1.95,1.89c-0.73,0.59 -1.69,1.07 -1.23,1.69c0.47,0.62 1.22,1.02 2.06,1.03c0.92,0.01 1.92,0 2.56,0c1.29,0 1.93,0.01 2.62,-0.01c0.72,-0.02 2.17,-0.14 2.86,-0.27c0.67,-0.13 1.69,-0.4 2.82,-0.55c0.83,-0.11 1.28,-0.11 2.19,-0.19c0.93,-0.08 2.32,-0.3 2.76,-0.42c0.87,-0.24 1.68,-0.57 2.46,-0.91c1.1,-0.47 1.77,-0.77 2.42,-1.01c0.88,-0.34 1.92,-0.74 2.6,-1.03l0.76,-0.33l1.04,-0.31l0.38,-0.62" fill="none" id="svg_16" stroke="#ffffff" stroke-width="10"/>
  <path d="m-415,70c0.04,-2.55 0.34,-3.56 1.22,-3.88c0.71,-0.26 0.33,0.84 -0.54,0.88c-0.72,0.04 -1.85,0.32 -2.64,0.71c-0.6,0.3 -1.23,0.69 -2.37,1.12c-0.82,0.32 -1.27,0.42 -2.19,0.65c-0.93,0.23 -2.31,0.52 -2.76,0.62c-0.87,0.2 -1.71,0.4 -2.52,0.66c-1.21,0.38 -2,0.72 -2.4,0.9c-0.79,0.34 -1.54,0.71 -2.64,1.18c-1,0.43 -1.64,0.65 -2.26,0.86c-1.2,0.41 -1.82,0.57 -2.67,0.94c-1.09,0.48 -1.82,0.97 -2.35,1.54c-0.7,0.75 -0.84,1.68 -0.12,1.82c0.89,0.18 1.81,0.01 2.74,0c0.76,0 1.61,-0.01 2.53,-0.07c0.48,-0.03 1.97,-0.24 2.97,-0.5c0.51,-0.13 1.52,-0.49 2.03,-0.69c0.52,-0.2 2.13,-0.91 2.69,-1.16c0.57,-0.26 1.72,-0.81 2.32,-1.08c0.6,-0.28 1.22,-0.55 1.84,-0.82c1.27,-0.53 2.6,-1 3.28,-1.24c0.7,-0.24 1.41,-0.48 2.15,-0.74c0.76,-0.27 1.55,-0.54 3.18,-1.2c0.87,-0.35 1.75,-0.75 2.65,-1.16c0.91,-0.41 1.83,-0.84 2.73,-1.27c0.9,-0.42 1.77,-0.84 3.45,-1.58c0.78,-0.34 1.53,-0.65 2.25,-0.93c0.7,-0.27 1.38,-0.53 2.05,-0.77c0.67,-0.24 1.34,-0.47 2.7,-0.96c0.71,-0.25 1.43,-0.52 2.17,-0.79c0.74,-0.28 1.48,-0.56 2.21,-0.85c0.73,-0.29 1.44,-0.57 2.79,-1.19c0.64,-0.29 1.25,-0.6 1.83,-0.9c0.57,-0.3 1.13,-0.6 1.67,-0.9c0.54,-0.3 1.07,-0.61 2.72,-1.5c0.56,-0.3 1.12,-0.6 1.68,-0.9c1.1,-0.6 1.64,-0.89 2.14,-1.2c1.41,-0.87 1.81,-1.18 2.53,-1.78c0.64,-0.53 1.58,-1.5 2.12,-2.01c0.55,-0.52 1.52,-1.03 2.1,-1.51c0.72,-0.6 0.19,-1.29 -0.69,-1.3c-0.91,-0.01 -1.66,0.07 -2.65,0.29c-0.65,0.14 -1.7,0.41 -2.78,0.71c-0.69,0.2 -1.37,0.41 -2.06,0.67c-0.76,0.29 -2.07,0.87 -2.56,1.1c-1.04,0.49 -1.57,0.75 -2.11,1.02c-1.07,0.53 -2.11,1.05 -2.6,1.29c-0.94,0.47 -1.84,0.92 -2.29,1.15c-0.92,0.46 -1.88,0.94 -2.92,1.46c-0.54,0.27 -1.09,0.55 -1.65,0.84c-1.13,0.58 -1.7,0.87 -2.81,1.48c-0.55,0.3 -1.61,0.9 -2.14,1.2c-0.53,0.3 -1.58,0.9 -2.11,1.2c-1.08,0.6 -2.2,1.2 -2.76,1.5c-0.57,0.3 -1.13,0.59 -2.24,1.15c-0.54,0.27 -1.58,0.79 -2.54,1.27c-0.9,0.45 -1.33,0.66 -2.16,1.08c-1.21,0.6 -2.01,1 -2.4,1.2c-0.77,0.4 -1.52,0.76 -2.48,1.4c-0.84,0.56 -1.27,1 -1.93,1.51c-0.97,0.76 -1.68,0.93 -2.51,1.68c-0.65,0.58 0.28,0.8 1.15,0.8c0.65,0 1.65,0 2.52,0c0.66,0 1.77,0 2.61,0c0.89,-0.01 1.82,-0.03 2.28,-0.06c1.38,-0.09 2.27,-0.22 3.13,-0.38c0.88,-0.16 1.32,-0.28 2.75,-0.56c0.51,-0.1 1.58,-0.3 2.13,-0.41c1.12,-0.22 1.69,-0.34 2.26,-0.47c1.67,-0.41 2.2,-0.59 3.26,-0.96c0.53,-0.19 1.58,-0.61 2.11,-0.84c1.09,-0.47 2.2,-1 2.76,-1.27c0.57,-0.27 1.13,-0.55 2.24,-1.09c0.54,-0.27 1.58,-0.79 2.54,-1.27c0.9,-0.45 1.33,-0.66 2.16,-1.08c1.21,-0.6 2.01,-1 2.4,-1.21c0.77,-0.41 1.54,-0.8 2.48,-1.56c0.59,-0.48 1.29,-1.32 1.67,-1.88c0.68,-1.01 1.07,-1.7 1.3,-2.35c0.35,-0.98 0.6,-1.8 0.36,-2.84c-0.18,-0.77 -1.3,-0.76 -2.16,-0.76c-0.88,0 -1.52,0 -2.52,0c-0.87,0 -1.53,0 -2.65,0c-0.84,0 -1.74,0.01 -2.69,0.07c-0.49,0.03 -1.98,0.25 -2.48,0.37c-1.01,0.25 -1.5,0.42 -2.5,0.78c-0.5,0.18 -2,0.78 -2.5,0.98c-1,0.4 -1.51,0.61 -2.54,1.04c-0.52,0.22 -2.13,0.93 -2.69,1.19c-0.56,0.26 -1.13,0.53 -2.28,1.08c-0.57,0.27 -1.15,0.55 -1.72,0.82c-1.66,0.77 -2.2,1 -3.24,1.46c-0.51,0.22 -1.49,0.67 -1.96,0.91c-1.38,0.71 -1.81,0.99 -2.65,1.54c-0.42,0.27 -1.22,0.84 -2.44,1.61c-0.4,0.25 -1.2,0.71 -1.98,1.17c-0.77,0.45 -1.86,1.16 -2.2,1.42c-0.67,0.51 -1.27,1.05 -2.05,1.81c-0.81,0.79 -1.36,1.38 -2.09,1.87c-0.64,0.43 -1.92,1.32 -1.39,1.81c0.67,0.63 1.63,-0.05 2.38,-0.63c0.61,-0.48 1.5,-1.29 2.03,-1.69c0.55,-0.41 1.47,-1.01 2.48,-1.6c0.71,-0.41 1.1,-0.6 1.88,-1.04c0.82,-0.47 1.26,-0.71 2.58,-1.6c0.47,-0.32 1.41,-1.02 1.88,-1.38c0.48,-0.36 1.41,-1.1 2.33,-1.81c0.44,-0.35 1.32,-1.01 1.75,-1.33c0.87,-0.63 1.31,-0.96 2.75,-1.84c0.5,-0.31 1.04,-0.6 2.13,-1.21c0.56,-0.31 1.13,-0.62 1.69,-0.95c1.69,-0.99 2.23,-1.36 2.76,-1.73c0.53,-0.37 1.58,-1.13 2.11,-1.53c0.53,-0.39 1.05,-0.8 2.14,-1.59c1.11,-0.81 1.68,-1.19 2.25,-1.58c0.56,-0.38 1.12,-0.75 1.68,-1.11c1.57,-1 2.07,-1.27 2.99,-1.8c0.44,-0.25 1.28,-0.7 2.03,-1.19c1.09,-0.71 1.74,-1.26 2.35,-1.82c0.59,-0.54 1.38,-1.33 1.85,-1.81c0.63,-0.64 2.55,-1.56 1.65,-2.12c-0.45,-0.28 -0.86,0.82 -1.56,1.41c-0.63,0.54 -1.22,1.32 -1.63,1.92c-0.46,0.67 -1.18,1.85 -1.45,2.28c-0.56,0.89 -0.84,1.36 -1.47,2.28c-0.32,0.47 -0.99,1.39 -1.72,2.26c-0.36,0.43 -1.12,1.26 -1.49,1.67c-0.74,0.81 -1.47,1.6 -2.14,2.41c-0.33,0.4 -0.99,1.22 -1.31,1.63c-0.66,0.85 -1.34,1.73 -1.7,2.19c-0.73,0.93 -1.11,1.41 -1.5,1.88c-0.78,0.95 -1.17,1.42 -1.98,2.33c-0.79,0.89 -1.19,1.31 -1.58,1.73c-0.75,0.82 -1.15,1.2 -2.09,2.44c-0.59,0.78 -0.83,1.19 -1.29,2c-0.45,0.79 -1.04,2 -1.24,2.4c-0.4,0.8 -0.79,1.58 -1.2,2.34c-0.59,1.1 -0.99,1.78 -1.4,2.42c-0.39,0.63 -0.8,1.23 -1.4,2.14c-0.58,0.88 -1.02,1.38 -1.47,2.37c-0.4,0.88 -0.48,2.21 0.28,2.29c0.88,0.09 1.37,-1.13 1.8,-1.78c0.46,-0.7 1.27,-1.4 1.8,-1.87c0.84,-0.75 1.2,-1.36 1.61,-2.01c0.46,-0.72 0.93,-1.51 1.51,-2.29c0.61,-0.82 0.97,-1.21 1.71,-2c0.38,-0.4 1.16,-1.2 1.96,-2c0.4,-0.4 1.2,-1.2 1.6,-1.61c0.8,-0.82 1.2,-1.24 1.6,-1.67c1.21,-1.32 1.6,-1.8 2.01,-2.27c0.83,-0.95 1.26,-1.43 1.71,-1.89c0.45,-0.47 1.4,-1.41 2.45,-2.27c0.53,-0.44 1.09,-0.84 1.65,-1.24c0.56,-0.4 1.12,-0.79 2.81,-1.88c0.54,-0.35 1.08,-0.68 1.6,-1.01c1.02,-0.64 1.52,-0.94 2.47,-1.56c0.92,-0.6 1.8,-1.2 2.23,-1.49c0.83,-0.57 1.23,-0.87 2.06,-1.34c1.18,-0.67 1.99,-0.97 2.76,-1.23c0.72,-0.24 1.71,-0.54 2.52,-0.83c0.8,-0.29 1.52,0.06 1.52,0.95c0,0.75 0.03,1.75 -0.04,2.61c-0.09,1.07 -0.24,1.7 -0.41,2.4c-0.19,0.75 -0.41,1.54 -0.88,2.73c-0.32,0.81 -0.71,1.61 -1.14,2.4c-0.22,0.4 -0.95,1.61 -1.5,2.4c-0.28,0.4 -0.85,1.2 -1.15,1.6c-0.89,1.2 -1.5,2 -1.79,2.4c-0.59,0.8 -1.15,1.6 -1.42,2c-0.78,1.19 -1.23,2 -1.45,2.4c-0.43,0.8 -0.83,1.6 -1.44,2.8c-0.4,0.79 -0.59,1.18 -1,1.93c-0.39,0.71 -1.2,1.9 -1.58,2.4c-0.51,0.66 -1.04,1.67 -1.24,2.44c-0.25,0.96 -1.29,1.69 -0.92,2.48c0.34,0.75 1.59,0.38 2.42,0.07c0.75,-0.28 1.71,-0.83 2.34,-1.11c0.69,-0.31 1.82,-0.7 2.49,-0.9c0.71,-0.22 1.46,-0.4 2.52,-0.86c1.04,-0.45 1.69,-0.87 2.38,-1.3c0.36,-0.22 1.53,-0.96 2.4,-1.49c0.44,-0.27 1.34,-0.82 1.79,-1.09c1.27,-0.78 2.04,-1.26 2.73,-1.72c0.65,-0.42 1.27,-0.83 2.17,-1.44c0.6,-0.4 1.47,-0.99 2.01,-1.4c0.77,-0.59 1.46,-1.19 2.08,-1.8c0.81,-0.79 1.44,-1.36 1.89,-2c0.54,-0.76 0.69,-1.58 0.71,-2.58c0.02,-0.82 0.45,-1.87 -0.06,-2.66c-0.38,-0.6 -1.71,-0.34 -2.46,-0.38c-0.8,-0.04 -1.79,-0.27 -2.52,-0.48c-0.81,-0.23 -1.82,-0.39 -2.63,-0.44c-0.87,-0.05 -1.79,-0.05 -2.25,-0.06c-1.36,-0.01 -2.23,0 -3.1,0c-0.89,0 -1.35,0 -2.82,0c-0.53,0 -1.63,0 -2.2,0c-1.17,0 -1.76,0 -2.96,0c-1.2,0 -1.8,0 -2.4,0.01c-1.2,0.02 -1.8,0.04 -2.4,0.07c-1.8,0.11 -2.4,0.19 -2.99,0.27c-1.17,0.15 -1.74,0.25 -2.29,0.35c-1.58,0.28 -2.54,0.49 -3,0.6c-0.87,0.21 -1.72,0.42 -2.91,0.86c-0.8,0.3 -1.58,0.65 -2.29,1.04c-0.66,0.37 -1.47,0.96 -2,1.57c-0.75,0.85 -1.36,1.27 -1.79,2.02c-0.46,0.8 -0.47,1.63 0.28,2.11c0.73,0.47 1.38,0.97 2.21,1.14c1,0.2 1.59,0.53 2.76,0.78c0.78,0.17 1.35,0.16 2.23,0.17c1.2,0.01 1.82,0 2.81,0c1.12,0 1.96,0 2.4,0c0.91,0 1.84,0 3.22,0c0.45,0 1.31,0 2.15,0c0.82,0 2.02,0 2.82,0c0.81,0 1.63,0 2.48,0c1.34,0 1.8,0.01 2.74,-0.01c0.95,-0.02 1.89,-0.05 2.81,-0.16c0.88,-0.1 1.72,-0.26 2.52,-0.44c0.76,-0.18 1.83,-0.47 2.79,-0.79c0.58,-0.19 1.7,-0.72 2.32,-1.08c0.82,-0.49 1.68,-0.97 1.53,-1.92c-0.13,-0.84 -0.75,-1.44 -1.51,-2.1c-0.62,-0.54 -1.33,-0.86 -2.31,-1.5c-0.57,-0.37 -1.49,-1.03 -2.19,-1.3c-0.54,-0.21 -1.46,-0.45 -2.5,-0.58c-0.74,-0.09 -1.52,-0.11 -2.34,-0.17c-1.31,-0.1 -2.22,-0.23 -2.69,-0.3c-0.93,-0.14 -1.84,-0.32 -3.12,-0.48c-0.76,-0.1 -1.47,-0.14 -2.48,-0.16c-1.02,-0.02 -1.74,0 -2.48,0c-0.75,0 -2.21,0 -2.89,0c-0.65,0.01 -1.59,0 -2.79,0.22c-0.6,0.11 -1.46,0.31 -2.37,0.78c-0.83,0.43 -1.55,1.01 -1.98,1.7c-0.51,0.82 -0.41,1.84 -0.14,2.62c0.25,0.71 0.91,1.56 1.64,2.05c0.63,0.43 1.47,0.8 2.48,1.28c0.39,0.18 1.26,0.56 1.76,0.75c1.72,0.63 2.41,0.8 3.14,0.99c0.77,0.2 1.6,0.4 2.48,0.58c0.92,0.19 1.9,0.38 2.92,0.54c2.2,0.34 3.37,0.47 4.6,0.6c1.28,0.13 2.61,0.25 3.99,0.35c1.44,0.1 2.94,0.19 4.49,0.25c3.28,0.14 5.01,0.17 6.79,0.2c1.83,0.03 3.69,0.05 5.59,0.06c1.92,0.01 3.87,0.02 5.82,0.02c3.91,0 5.86,0 7.8,0c1.94,0 3.88,0 5.82,0c1.96,0 3.93,0 5.91,0c4.05,0 6.11,0 8.2,0c2.12,0 4.26,-0.01 6.43,-0.02c2.18,-0.01 4.39,-0.03 6.61,-0.06c4.48,-0.07 6.73,-0.13 9.01,-0.2c2.3,-0.07 4.63,-0.16 7.01,-0.25c2.43,-0.1 4.91,-0.22 7.46,-0.35c5.33,-0.27 8.12,-0.43 11,-0.6c2.96,-0.17 5.99,-0.34 9.1,-0.52c3.17,-0.18 6.4,-0.35 9.68,-0.52c6.71,-0.33 10.13,-0.47 13.58,-0.6c3.46,-0.13 6.92,-0.25 10.37,-0.36c3.42,-0.11 6.81,-0.22 10.14,-0.32c6.46,-0.2 9.57,-0.3 12.58,-0.4c2.93,-0.1 5.77,-0.21 8.52,-0.34c2.67,-0.12 5.26,-0.26 7.76,-0.43c4.76,-0.33 7.02,-0.56 9.21,-0.8c2.12,-0.23 4.18,-0.49 6.18,-0.77c1.95,-0.27 3.86,-0.56 5.73,-0.86c3.65,-0.59 5.44,-0.89 7.2,-1.2c1.73,-0.3 3.43,-0.6 5.09,-0.9c1.61,-0.3 3.18,-0.59 4.69,-0.9c2.84,-0.58 4.15,-0.89 5.39,-1.2c1.18,-0.29 2.29,-0.58 3.33,-0.88c0.98,-0.28 1.9,-0.56 2.75,-0.84c1.53,-0.5 2.19,-0.76 2.8,-1c0.56,-0.22 1.06,-0.44 1.51,-0.66c0.4,-0.2 0.76,-0.4 1.06,-0.62c0.5,-0.37 0.67,-0.59 0.81,-0.8c0.12,-0.19 0.21,-0.39 0.26,-0.58c0.05,-0.18 0.07,-0.36 0.08,-0.54c0.01,-0.32 0.01,-0.46 0,-0.6c0,-0.13 -0.01,-0.25 -0.02,-0.36c-0.01,-0.11 -0.03,-0.22 -0.06,-0.32c-0.07,-0.21 -0.13,-0.3 -0.2,-0.4c-0.07,-0.11 -0.16,-0.21 -0.26,-0.32c-0.1,-0.12 -0.22,-0.24 -0.35,-0.36c-0.28,-0.28 -0.43,-0.44 -0.6,-0.6c-0.18,-0.17 -0.38,-0.35 -0.61,-0.52c-0.25,-0.18 -0.52,-0.36 -0.84,-0.52c-0.71,-0.35 -1.14,-0.47 -1.6,-0.6c-0.49,-0.14 -1.01,-0.26 -1.56,-0.38c-0.57,-0.13 -1.17,-0.25 -1.79,-0.38c-1.28,-0.28 -1.93,-0.44 -2.61,-0.6c-0.7,-0.17 -1.43,-0.35 -2.21,-0.54c-0.83,-0.19 -1.71,-0.39 -2.66,-0.58c-2.13,-0.42 -3.32,-0.6 -4.59,-0.8c-1.33,-0.2 -2.71,-0.39 -4.12,-0.58c-1.43,-0.19 -2.87,-0.37 -4.3,-0.54c-2.78,-0.33 -4.11,-0.47 -5.39,-0.6c-1.25,-0.13 -2.48,-0.24 -3.7,-0.34c-1.21,-0.1 -2.43,-0.19 -3.66,-0.26c-2.53,-0.14 -3.85,-0.17 -5.21,-0.2c-1.39,-0.03 -2.8,-0.05 -4.24,-0.06c-1.46,-0.01 -2.93,-0.02 -4.42,-0.02c-2.99,0 -4.49,0 -5.99,0c-1.49,0 -2.97,0 -4.44,0c-1.45,0 -2.89,0 -4.31,0c-2.76,0 -4.09,0 -5.39,0c-1.27,0 -2.51,0 -3.72,0c-1.17,0 -2.3,0 -3.4,0c-2.08,0 -3.06,0 -4,0c-0.91,0 -1.8,0.01 -2.66,0.02c-0.84,0.01 -1.67,0.03 -2.48,0.06c-1.61,0.07 -2.41,0.13 -3.2,0.2c-0.79,0.07 -1.57,0.15 -2.34,0.26c-0.76,0.1 -1.49,0.21 -2.21,0.34c-1.36,0.26 -1.99,0.43 -2.59,0.6c-0.57,0.16 -1.11,0.34 -1.62,0.52c-0.47,0.17 -0.91,0.34 -1.3,0.52c-0.68,0.31 -0.96,0.46 -1.2,0.6c-0.21,0.12 -0.39,0.24 -0.54,0.36c-0.13,0.11 -0.24,0.21 -0.31,0.32c-0.14,0.19 -0.17,0.3 -0.21,0.4c-0.03,0.1 -0.05,0.2 -0.06,0.3c-0.01,0.1 -0.02,0.2 -0.02,0.3c0,0.2 0,0.3 0,0.4c0,0.1 0.01,0.2 0.02,0.3c0.01,0.1 0.03,0.2 0.06,0.3c0.07,0.2 0.13,0.3 0.2,0.4c0.07,0.1 0.15,0.2 0.24,0.3c0.09,0.1 0.18,0.2 0.28,0.3c0.2,0.2 0.3,0.3 0.4,0.4c0.1,0.1 0.2,0.2 0.3,0.3c0.1,0.1 0.2,0.2 0.3,0.3c0.2,0.2 0.3,0.3 0.4,0.4c0.1,0.1 0.2,0.19 0.3,0.28c0.1,0.09 0.2,0.17 0.3,0.24c0.19,0.13 0.3,0.17 0.4,0.2c0.1,0.04 0.2,0.07 0.3,0.1c0.1,0.04 0.2,0.08 0.3,0.15c0.21,0.15 0.3,0.27 0.4,0.4c0.11,0.14 0.21,0.29 0.32,0.45c0.11,0.16 0.23,0.34 0.36,0.5c0.27,0.33 0.43,0.47 0.6,0.6c0.17,0.13 0.35,0.25 0.54,0.36c0.19,0.11 0.38,0.22 0.58,0.32c0.4,0.2 0.6,0.3 0.8,0.4c0.2,0.1 0.4,0.19 0.6,0.28c0.2,0.09 0.4,0.17 0.6,0.24c0.4,0.13 0.6,0.17 0.8,0.2c0.21,0.03 0.42,0.06 0.64,0.08c0.23,0.03 0.47,0.05 0.73,0.08c0.56,0.08 0.87,0.14 1.2,0.2c0.34,0.07 0.69,0.14 1.05,0.22c0.36,0.08 0.73,0.15 1.1,0.22c0.71,0.13 1.06,0.17 1.4,0.2c0.33,0.03 0.66,0.05 0.98,0.06c0.33,0.01 0.65,0.02 0.98,0.02c0.68,0 1.04,0 1.4,0c0.37,0 0.74,0 1.12,0c0.37,0 0.75,0 1.12,0c0.72,0 1.06,0 1.4,0c0.33,0 0.66,0 0.98,0c0.33,0 0.65,0 0.98,0c0.68,0 1.04,0 1.4,0c0.37,0 0.73,0 1.1,0c0.36,0 0.71,0 1.05,0c0.64,0 0.93,0 1.2,0c0.26,0 0.5,0 0.73,0c0.22,0 0.43,0 0.64,0c0.4,0 0.6,0 0.8,0c0.19,0 0.38,-0.01 0.56,-0.02c0.17,-0.01 0.33,-0.03 0.47,-0.06c0.24,-0.06 0.33,-0.13 0.4,-0.2c0.06,-0.06 0.1,-0.14 0.11,-0.22c0.01,-0.07 0.01,-0.15 -0.03,-0.22c-0.06,-0.13 -0.13,-0.17 -0.2,-0.2c-0.07,-0.04 -0.14,-0.07 -0.22,-0.1c-0.08,-0.04 -0.15,-0.08 -0.22,-0.15c-0.14,-0.15 -0.17,-0.27 -0.2,-0.4c-0.04,-0.14 -0.07,-0.29 -0.1,-0.45c-0.04,-0.16 -0.08,-0.34 -0.15,-0.5c-0.14,-0.33 -0.27,-0.47 -0.4,-0.6c-0.14,-0.13 -0.3,-0.25 -0.47,-0.36c-0.18,-0.11 -0.37,-0.22 -0.56,-0.32c-0.4,-0.21 -0.6,-0.3 -0.8,-0.4c-0.21,-0.1 -0.42,-0.21 -0.64,-0.32c-0.23,-0.12 -0.47,-0.24 -0.73,-0.36c-0.56,-0.28 -0.87,-0.44 -1.2,-0.6c-0.35,-0.17 -0.72,-0.34 -1.11,-0.52c-0.41,-0.18 -0.84,-0.36 -1.29,-0.52c-0.95,-0.34 -1.47,-0.47 -2,-0.6c-0.55,-0.14 -1.11,-0.26 -1.69,-0.38c-0.59,-0.13 -1.2,-0.25 -1.83,-0.38c-1.28,-0.28 -1.93,-0.44 -2.6,-0.6c-0.67,-0.17 -1.35,-0.34 -2.04,-0.52c-0.69,-0.18 -1.38,-0.35 -2.08,-0.52c-1.4,-0.33 -2.1,-0.47 -2.8,-0.6c-0.71,-0.13 -1.42,-0.25 -2.14,-0.36c-0.73,-0.11 -1.47,-0.22 -2.23,-0.32c-1.56,-0.21 -2.37,-0.3 -3.2,-0.4c-0.84,-0.1 -1.69,-0.2 -2.55,-0.3c-0.86,-0.1 -1.73,-0.2 -2.6,-0.3c-1.72,-0.2 -2.56,-0.3 -3.39,-0.4c-0.82,-0.1 -1.63,-0.19 -2.43,-0.28c-0.78,-0.09 -1.54,-0.17 -2.29,-0.24c-1.44,-0.13 -2.13,-0.17 -2.8,-0.2c-0.65,-0.03 -1.29,-0.05 -1.91,-0.06c-0.61,-0.01 -1.2,-0.02 -1.77,-0.02c-1.12,0 -1.67,0 -2.2,0c-0.52,0 -1.03,0 -1.53,0c-0.94,0 -2.23,0 -2.99,0c-1.01,0 -1.61,0 -2.89,0c-0.64,0 -2.08,-0.57 -2.56,0.22c-0.37,0.61 1.05,0.92 1.71,1.21c0.78,0.34 1.77,0.86 2.4,1.2c0.94,0.51 1.72,1.02 2.28,1.36c0.58,0.35 1.77,1 2.38,1.24c0.92,0.37 1.58,0.56 2.62,0.86c0.73,0.21 1.5,0.4 2.28,0.6c1.19,0.3 1.99,0.51 2.8,0.69c0.8,0.18 1.6,0.36 2.8,0.49c0.81,0.09 1.64,0.11 2.51,0.12c0.46,0.01 1.93,0 2.45,0c1.07,0 1.61,0 2.67,0c0.51,0 1.9,0 2.69,0c1.04,0 1.67,0 2.87,0c0.86,0 1.63,0 2.73,0c0.96,0 1.06,-0.16 0.5,-0.8c-0.6,-0.7 -1.43,-1.01 -2.23,-1.4c-0.83,-0.41 -1.76,-0.81 -2.56,-1.1c-0.59,-0.21 -1.25,-0.42 -2.37,-0.7c-0.83,-0.21 -1.74,-0.4 -2.69,-0.6c-0.49,-0.1 -1.98,-0.4 -2.48,-0.5c-1.01,-0.2 -1.52,-0.3 -2.57,-0.46c-0.54,-0.08 -2.26,-0.27 -2.87,-0.31c-0.63,-0.04 -1.27,-0.07 -2.58,-0.12c-0.66,-0.03 -1.33,-0.05 -2,-0.08c-1.32,-0.07 -2.6,-0.2 -3.23,-0.27c-0.63,-0.07 -1.88,-0.22 -2.51,-0.29c-0.63,-0.07 -1.91,-0.19 -2.57,-0.23c-1.33,-0.08 -2.01,-0.09 -2.7,-0.1c-0.69,-0.01 -1.38,-0.02 -2.08,-0.02c-2.1,-0.01 -2.79,0 -3.49,0c-0.68,0 -1.35,0 -2.64,0c-0.62,0 -1.77,0 -2.82,0c-0.95,0.01 -1.39,0 -2.24,0.06c-1.22,0.08 -2.01,0.21 -2.79,0.38c-0.75,0.16 -2.1,0.53 -2.9,0.86c-0.67,0.28 -1.52,0.77 -2.11,1.3c-0.74,0.67 -1.36,1.38 -1.41,2.2c-0.05,0.92 0.82,1.26 1.52,1.72c0.82,0.55 1.51,1 2.17,1.28c0.99,0.43 1.85,0.71 2.48,0.9c1,0.31 2.1,0.6 2.49,0.71c0.8,0.22 1.64,0.46 2.98,0.91c0.47,0.16 1.43,0.51 1.94,0.68c1.05,0.36 1.6,0.54 2.77,0.83c1.23,0.31 1.88,0.41 2.55,0.52c0.68,0.11 1.37,0.21 2.08,0.28c2.2,0.23 2.96,0.24 3.72,0.28c0.77,0.03 1.55,0.05 2.34,0.06c0.79,0.01 1.58,0.02 2.38,0.02c1.6,0 2.4,0 3.2,0c0.8,0 1.6,0 2.4,0c0.8,0 1.6,0 2.4,0c1.6,0 2.4,0 3.2,0c0.79,0 1.57,0 2.34,0c0.75,0 1.49,0 2.21,0c1.36,0 2.6,0 3.18,0c1.11,0 1.64,0 2.67,0c1,0 2,0 2.97,0c0.47,0 1.36,0 2.53,0c0.92,0 1.83,0 2.74,0c0.86,0 1.89,-0.42 1.31,-1.1c-0.45,-0.53 -1.53,-0.84 -2.31,-0.9c-0.9,-0.07 -1.65,0 -2.65,0c-0.83,0 -2.02,0 -2.56,0c-0.88,0 -2.21,0 -2.92,0c-0.75,0 -1.53,0 -2.32,0c-1.2,0 -2,0 -2.82,0c-0.84,0 -2.15,0 -2.6,0c-0.94,0 -1.9,0.02 -2.39,0.04c-0.99,0.04 -2.49,0.18 -2.99,0.25c-0.99,0.14 -1.48,0.23 -2.44,0.42c-1.39,0.28 -1.84,0.39 -2.7,0.6c-0.84,0.2 -1.65,0.4 -2.86,0.7c-0.8,0.2 -1.6,0.4 -2.4,0.6c-0.8,0.2 -2,0.5 -2.79,0.7c-0.75,0.2 -1.47,0.33 -2.55,0.8c-0.75,0.33 -1.62,0.66 -2.4,0.93c-0.83,0.28 -0.27,0.63 0.62,1c0.77,0.31 1.38,0.92 2.1,0.96c0.9,0.05 1.94,0.02 2.68,0.02c0.78,0 1.6,0 2.9,0c0.92,0 1.39,0 2.38,0c0.5,0 1.54,0 2.63,0c1.12,0 1.69,0 2.83,0c0.57,0 1.15,0 2.83,0c0.55,0 1.61,0 2.13,0c1.03,0 2.03,0 3.04,0c1,0 1.49,0.01 2.46,-0.02c0.93,-0.03 2.21,-0.12 2.97,-0.26c0.69,-0.13 1.62,-0.39 2.65,-0.81c0.67,-0.28 1.6,-0.58 1.9,-1.5c0.28,-0.86 0.14,-1.91 -0.42,-2.5c-0.62,-0.65 -1.56,-0.97 -2.18,-1.54c-0.73,-0.66 -1.21,-1.24 -1.95,-1.77c-0.89,-0.64 -1.68,-1 -2.09,-1.19c-0.87,-0.4 -1.79,-0.75 -2.25,-0.92c-1.35,-0.48 -2.23,-0.73 -3.08,-0.99c-0.43,-0.13 -1.29,-0.37 -2.62,-0.82c-0.47,-0.16 -1.41,-0.51 -1.9,-0.68c-0.98,-0.35 -2.48,-0.84 -2.98,-0.98c-0.99,-0.28 -1.49,-0.39 -2.46,-0.61c-0.48,-0.11 -1.87,-0.41 -2.75,-0.61c-0.85,-0.19 -1.67,-0.39 -2.48,-0.52c-1.2,-0.19 -2,-0.24 -2.8,-0.26c-0.8,-0.03 -2,-0.02 -2.8,-0.02c-0.79,0 -1.57,0 -2.32,0c-1.06,0 -2.04,0 -2.64,0c-1.08,0 -2.01,0 -2.85,0c-0.99,0 -2.1,-0.08 -2.39,0.7c-0.31,0.84 0.42,1.7 1.09,2.4c0.49,0.51 1.19,1.21 1.9,1.9c0.52,0.51 1.32,1.1 2,1.5c0.84,0.5 1.49,1.06 2.33,1.5c0.66,0.35 1.49,0.6 2.07,0.8c1.2,0.4 1.79,0.63 2.7,0.84c1.19,0.28 1.79,0.32 2.66,0.35c1.07,0.03 2,0.01 2.83,0.01c1,0 1.75,0.08 2.65,0c0.93,-0.08 1.94,-0.31 2.51,-1.1c0.44,-0.6 0.24,-1.6 0.24,-2.5c0,-0.9 -0.03,-1.77 -0.57,-2.43c-0.5,-0.6 -1.23,-0.97 -2.13,-0.97c-0.9,0 -1.8,0 -2.72,0c-0.91,0 -1.59,0 -2.36,0c-1.05,0 -2.01,-0.1 -2.81,0.17c-0.85,0.28 -1.57,1.01 -2.23,1.66c-0.53,0.53 -1.38,1.18 -1.81,1.87c-0.47,0.73 -0.6,1.73 -0.35,2.6c0.22,0.77 1.01,1.37 1.71,1.66c0.77,0.32 1.5,0.8 2.1,1.4c0.68,0.68 1.45,1.03 2.3,1.34c0.88,0.33 1.79,0.62 2.41,0.78c0.96,0.26 2,0.41 2.74,0.47c0.76,0.06 1.55,0.08 2.74,0.22c0.8,0.1 1.6,0.26 2.4,0.41c0.8,0.15 2,0.32 2.8,0.37c0.8,0.05 1.6,0.05 2.8,0.06c0.8,0 1.58,0 2.33,0c1.34,0 2.16,0.04 2.85,-0.04c1.03,-0.12 1.99,-0.27 2.58,-1.06c0.44,-0.59 0.19,-1.6 -0.26,-2.4c-0.44,-0.8 -0.98,-1.38 -1.7,-1.79c-0.75,-0.42 -1.46,-0.99 -2.15,-1.41c-0.92,-0.57 -1.52,-1.11 -2.48,-1.26c-0.68,-0.11 -1.78,-0.03 -2.57,-0.46c-0.82,-0.45 -1.6,-0.65 -2.4,-0.57c-0.93,0.09 -1.19,1.02 -1.2,1.98c-0.01,0.82 -0.04,1.69 0.29,2.51c0.29,0.72 1.02,1.51 1.73,2.02c0.57,0.4 1.4,0.96 1.96,1.52c0.56,0.56 1.23,1.61 1.68,2.14c0.62,0.72 1.34,1.11 2.16,1.43c1.16,0.45 1.78,0.62 2.7,0.91c0.64,0.2 1.64,0.5 2.36,0.7c0.75,0.2 1.53,0.4 2.32,0.6c1.2,0.3 2,0.51 2.8,0.68c0.8,0.17 2,0.37 2.8,0.44c0.79,0.06 1.57,0.08 2.32,0.08c1.4,0.01 2.05,0 2.98,0c0.9,0 1.8,0 2.7,0c0.6,0 1.8,0.02 2.68,-0.02c0.84,-0.04 1.86,-0.21 2.48,-0.5c1.06,-0.49 1.72,-1.07 1.96,-1.96c0.18,-0.67 0.09,-1.76 0.09,-2.62c0,-0.79 0.06,-1.75 -0.09,-2.5c-0.19,-1.01 -0.6,-1.82 -1.4,-2.51c-0.48,-0.42 -1.38,-0.85 -2.11,-1.49c-0.64,-0.57 -0.97,-1.64 -1.89,-1.86c-0.53,-0.12 -0.54,1.05 -1.23,1.51c-0.76,0.52 -1.22,1.26 -1.28,2.16c-0.07,0.99 -0.01,1.77 -0.01,2.62c0,0.92 -0.09,1.83 0.06,2.51c0.23,1.07 0.95,1.82 1.34,2.48c0.41,0.69 0.85,1.48 1.49,1.97c0.89,0.69 1.52,0.9 2.51,1.4c0.6,0.3 1.59,0.82 2.4,1.19c0.59,0.27 1.6,0.56 2.44,0.6c0.93,0.05 1.72,0.01 2.54,0.01c1.06,0 1.99,0 2.82,0c1,0 1.82,0.02 2.8,-0.29c0.62,-0.19 1.61,-0.69 2.19,-1.01c0.85,-0.47 1.39,-1.22 1.41,-2.18c0.01,-0.69 0.16,-1.82 -0.22,-2.62c-0.35,-0.74 -0.91,-1.43 -1.38,-2.04c-0.62,-0.82 -1.62,-1.12 -2.2,-1.66c-0.62,-0.58 -1.22,-1.4 -1.9,-1.84c-0.79,-0.51 -1.29,-1.18 -2.1,-1.36c-0.88,-0.2 -1.82,-0.17 -2.7,0.02c-0.85,0.18 -1.5,0.98 -2,1.48c-0.7,0.7 -1.35,1.27 -1.49,2.14c-0.17,1 -0.33,1.77 0,2.72c0.27,0.78 1.36,0.95 1.99,1.81c0.45,0.61 0.72,1.4 1.64,1.85c0.8,0.39 1.55,0.65 2.56,0.86c0.79,0.17 1.8,0.12 2.6,0.12c0.8,0 1.8,0 2.66,0c0.96,0 1.76,0 2.53,0c1.04,0 1.89,0 2.85,0c0.77,0 1.76,0 2.51,0c1.02,-0.01 2.05,-0.15 2.49,-1c0.33,-0.64 0.17,-1.6 0.17,-2.5c-0.01,-0.9 -0.35,-1.81 -1,-2.5c-0.47,-0.51 -0.78,-1.43 -1.44,-2.1c-0.62,-0.62 -1.63,-0.58 -2.36,-1.07c-0.75,-0.51 -0.96,-1.33 -1.8,-1.85c-0.77,-0.47 -1.6,-0.94 -2.5,-0.99c-0.9,-0.04 -1.88,-0.47 -2.61,0.09c-0.62,0.46 -0.29,1.61 -0.29,2.55c0,0.85 0,1.77 0,2.76c0,0.77 -0.05,1.72 0,2.6c0.04,0.8 0.61,1.6 1.2,2.2c0.6,0.6 1.26,1.36 2.1,1.75c0.77,0.35 1.49,0.79 2.34,1.08c0.84,0.28 1.5,0.67 2.48,0.89c0.84,0.19 1.89,0.09 2.63,0.09c0.92,0 1.87,0 2.74,0c0.73,0 1.72,0.09 2.68,-0.04c0.83,-0.11 1.58,-0.68 2.32,-1.17c0.68,-0.45 1.53,-1.1 1.88,-1.63c0.48,-0.74 0.97,-1.75 1.2,-2.4c0.32,-0.91 0.4,-1.72 0.43,-2.57c0.04,-1.19 0.01,-1.79 0.01,-2.67c0,-0.84 0,-1.84 0,-2.75c0,-0.94 0.06,-1.74 -0.07,-2.55c-0.17,-1.08 -0.62,-1.78 -1.11,-2.41c-0.63,-0.82 -1.16,-1.61 -1.51,-2.15c-0.58,-0.91 -1.29,-1.57 -2.1,-1.66c-0.9,-0.09 -1.8,0 -2.7,0c-0.9,0 -1.93,-0.17 -2.6,0.44c-0.53,0.49 -0.89,1.56 -1.2,2.16c-0.44,0.86 -1.01,1.82 -1.35,2.35c-0.52,0.82 -0.88,1.35 -1.46,2.36c-0.38,0.66 -0.91,1.68 -1.18,2.29c-0.38,0.84 -0.59,1.82 -0.68,2.62c-0.09,0.82 -0.22,1.86 -0.45,2.53c-0.26,0.77 -0.56,1.75 -0.57,2.73c-0.01,0.69 -0.14,1.77 0,2.62c0.14,0.85 1.21,0.78 2.1,0.9c0.8,0.11 1.26,0.97 2.1,1c0.9,0.03 1.84,0.17 2.6,-0.09c0.89,-0.3 1.8,-0.77 2.11,-1.48c0.32,-0.72 -0.02,-1.84 0.37,-2.63c0.43,-0.87 0.71,-1.56 0.72,-2.45c0,-0.86 0.02,-1.85 0,-2.67c-0.02,-0.85 -0.24,-1.83 -0.7,-2.37c-0.64,-0.76 -1.32,-1.51 -2,-1.95c-0.73,-0.48 -1.51,-0.89 -2.4,-1.24c-0.67,-0.26 -1.67,-0.12 -2.44,-0.12c-0.86,0 -2.06,0 -2.65,0c-0.85,0 -1.89,0 -2.83,0c-0.75,0 -1.62,-0.01 -2.64,0.01c-0.72,0.02 -1.46,0.02 -2.52,0.21c-1,0.18 -1.63,0.38 -2.82,0.94c-0.61,0.29 -1.19,0.67 -2.1,1.18c-0.89,0.5 -1.8,0.89 -2.38,1.15c-0.84,0.37 -1.63,0.78 -2.27,1.34c-0.62,0.53 -1.25,1.35 -1.73,2.16c-0.34,0.59 -0.86,1.58 -1.16,2.34c-0.35,0.89 -0.43,1.83 -0.34,2.66c0.11,0.99 0.61,1.61 1.18,2.48c0.45,0.68 0.93,1.4 1.63,1.88c0.73,0.49 1.57,0.82 2.4,1.27c0.94,0.51 1.45,0.85 2.28,1.36c0.58,0.35 1.47,0.86 2.38,1.24c0.61,0.25 1.58,0.57 2.62,0.86c0.73,0.2 1.48,0.4 2.23,0.54c1.08,0.21 2.1,0.31 2.77,0.34c0.69,0.03 1.81,0.02 2.65,0.02c0.88,0 1.78,0 2.66,0c1.23,0 1.95,0 2.63,0c0.94,0 1.84,0.02 2.74,-0.01c0.9,-0.03 1.81,-0.11 2.69,-0.35c0.85,-0.24 1.83,-0.75 2.29,-1.3c0.58,-0.69 0.94,-1.53 1.29,-2.32c0.38,-0.84 0.52,-1.77 0.52,-2.68c0,-0.8 0,-1.76 0,-2.55c0,-0.78 0.26,-1.95 -0.33,-2.79c-0.39,-0.54 -1.27,-0.81 -1.91,-1.66c-0.53,-0.7 -0.77,-1.6 -1.28,-2.3c-0.56,-0.78 -1.34,-0.85 -2.31,-1.21c-0.8,-0.3 -1.59,-0.75 -2.49,-1.05c-0.69,-0.24 -1.65,-0.71 -2.43,-0.77c-0.9,-0.07 -1.65,-0.03 -2.65,0c-0.8,0.02 -1.82,0.16 -2.58,0.52c-0.89,0.42 -1.57,0.95 -2.12,1.8c-0.43,0.67 -0.66,1.27 -0.85,2.28c-0.14,0.79 -0.36,1.79 -0.63,2.6c-0.33,0.99 -0.45,1.78 -0.43,2.78c0.02,0.78 0.32,1.69 0.7,2.37c0.45,0.79 1.13,1.42 1.7,2.06c0.64,0.72 0.94,1.47 1.49,2.11c0.69,0.8 1.47,1.17 2.23,1.68c0.64,0.43 1.54,0.77 2.29,0.8c0.99,0.04 1.8,0 2.8,0c0.8,0 1.8,0 2.59,0c1.04,0 1.91,0.01 2.81,0c0.9,-0.01 1.91,-0.23 2.28,-1.1c0.35,-0.84 0.22,-1.71 0.09,-2.54c-0.14,-0.87 -0.61,-1.56 -0.84,-2.56c-0.18,-0.77 -0.28,-1.82 -0.77,-2.43c-0.61,-0.76 -1.18,-1.2 -1.87,-1.89c-0.73,-0.73 -1.32,-1.25 -1.88,-1.89c-0.64,-0.72 -0.8,-1.59 -1.6,-2.26c-0.59,-0.49 -1.6,-0.33 -2.5,-0.33c-0.9,0 -1.8,0 -2.7,0c-0.9,0 -1.61,0.33 -2.02,1.1c-0.4,0.76 -0.8,1.54 -0.78,2.38c0.02,0.86 0.21,1.98 1.1,2.39c0.64,0.3 1.66,0.12 2.56,0.12c0.75,0 1.75,0 2.61,0c1.06,0 1.7,0.02 2.73,-0.02c0.7,-0.02 1.69,-0.07 2.49,-0.34c0.94,-0.32 1.73,-0.95 2.31,-1.47c0.61,-0.55 1.41,-1.35 1.79,-1.76c0.72,-0.78 1.18,-1.6 1.39,-2.38c0.26,-0.99 0.78,-1.55 1,-2.54c0.17,-0.78 0.21,-1.67 0.02,-2.59c-0.18,-0.88 -1.48,-1.21 -1.94,-0.53c-0.47,0.7 0.35,1.48 1.14,1.93c0.75,0.42 1.46,1 2.15,1.41c0.78,0.48 1.41,1.06 2.14,1.79c0.54,0.53 1.11,1.12 1.92,1.91c0.41,0.4 1.09,1.03 1.93,1.6c0.62,0.42 1.33,0.8 2.05,1.2c0.73,0.4 1.8,0.99 2.46,1.4c0.64,0.39 1.56,1 2.46,1.6c0.6,0.4 1.2,0.8 1.8,1.2c1.2,0.8 1.8,1.2 2.4,1.62c0.6,0.43 1.51,1.14 2.1,1.66c0.61,0.53 1.19,1.1 1.8,1.63c0.89,0.78 1.49,1.24 2.4,1.87c0.6,0.42 1.5,1.01 2.09,1.41c0.84,0.57 1.37,0.88 2.29,1.65c0.64,0.53 1.31,1.26 1.91,1.86c0.6,0.6 1.46,1.21 1.78,2c0.3,0.74 0.12,1.73 0.12,2.73c0,0.76 0,1.67 0,2.58c0,0.91 0.09,1.77 0,2.7c-0.08,0.9 -0.79,1.54 -0.98,2.39c-0.19,0.88 -0.41,1.65 -0.74,2.39c-0.39,0.89 -0.33,1.65 -0.78,2.59c-0.41,0.84 -0.5,1.69 -0.5,2.52c0,0.98 0,1.75 0,2.66c0,0.75 0,1.74 0,2.54c0,1 0,1.8 0,2.8c0,0.8 0,1.6 0,2.6c0,0.8 0,1.8 0,2.6c0,1 0,1.8 0,2.8c0,0.8 0,1.6 0,2.6c0,0.85 -0.02,1.82 0.01,2.63c0.03,0.87 0.19,2.07 0.35,2.66c0.23,0.88 0.64,1.94 0.94,2.65c0.27,0.65 0.58,1.66 0.7,2.46c0.16,1 0.47,1.79 0.72,2.6c0.24,0.79 0.24,1.62 0.51,2.6c0.22,0.84 0.55,1.48 0.69,2.48c0.11,0.81 0.08,1.63 0.09,2.86c0,0.65 0,1.66 0,2.5c0,0.73 0,1.93 0,2.63c0,0.75 0,1.53 0,2.73c0,0.8 0,1.62 0.06,2.46c0.08,1.31 0.22,2.23 0.3,2.7c0.14,0.95 0.3,1.89 0.36,2.36c0.18,1.36 0.23,2.24 0.26,3.1c0.01,0.44 0.02,1.35 0.02,2.82c0,0.53 0.01,1.61 0.02,2.16c0.03,1.09 0.03,1.64 0.2,3.16c0.05,0.47 0.21,1.38 0.35,2.26c0.14,0.87 0.31,2.21 0.34,2.67c0.06,0.94 0.08,1.89 0.08,2.36c0.01,1.39 0,2.27 0,3.11c0,0.8 0,1.56 0,2.63c0,1 0,1.65 0,2.99c0,0.72 0,1.45 0,2.17c0,1.33 0,2.15 0,2.88c0,0.95 0.03,1.74 -0.04,2.56c-0.09,1.06 -0.38,2 -0.67,2.62c-0.47,1.02 -0.86,1.58 -1.13,2.6c-0.21,0.78 -0.29,1.86 -0.69,2.5c-0.53,0.86 -1.04,1.49 -1.31,2.5c-0.21,0.77 -0.19,1.54 -0.59,2.36c-0.43,0.87 -0.72,1.81 -1.01,2.47c-0.34,0.78 -0.68,1.61 -1.16,2.29c-0.6,0.84 -1.52,1.3 -1.9,1.89c-0.52,0.8 -0.99,1.51 -1.82,2.08c-0.67,0.46 -1.3,0.76 -2.08,1.38c-0.62,0.5 -1.16,1.09 -2.2,1.76c-0.58,0.38 -1.6,0.85 -2.19,1.16c-0.73,0.39 -1.55,1.05 -2.38,1.6c-0.64,0.43 -1.38,0.63 -2.42,1.03c-0.74,0.28 -1.55,1.02 -2.25,1.36c-0.74,0.37 -1.56,0.56 -2.51,0.61c-0.9,0.04 -1.82,0.17 -2.66,0.5c-0.83,0.33 -1.59,0.49 -2.5,0.5c-0.9,0.01 -1.8,0.08 -2.7,0c-0.98,-0.08 -1.8,-0.27 -2.47,-1.17c-0.43,-0.59 -0.44,-1.47 -0.9,-2.23c-0.4,-0.65 -1,-1.25 -1.55,-2.28c-0.43,-0.81 -0.61,-1.43 -1.05,-2.31c-0.46,-0.92 -0.85,-1.51 -1.18,-2.16c-0.51,-1 -0.78,-1.72 -1.02,-2.47c-0.35,-1.12 -0.63,-2.21 -0.84,-2.89c-0.19,-0.64 -0.48,-1.53 -0.9,-2.57c-0.28,-0.69 -0.69,-1.52 -1.1,-2.32c-0.39,-0.77 -0.98,-1.52 -1.44,-2.3c-0.44,-0.74 -1.14,-1.23 -1.32,-0.43c-0.16,0.71 -0.04,1.72 -0.04,2.64c0,0.87 -0.02,1.82 0.01,2.74c0.03,0.74 0.3,1.76 0.64,2.44c0.41,0.81 0.79,1.63 1.35,2.31c0.43,0.52 0.92,1.51 1.35,2.3c0.46,0.84 0.55,1.67 1.26,2.26c0.73,0.61 1.38,-0.17 1.39,-1.06c0.01,-0.9 0.08,-1.83 -0.17,-2.67c-0.2,-0.68 -0.83,-1.67 -1.23,-2.21c-0.6,-0.8 -1.01,-1.46 -1.4,-2.23c-0.41,-0.79 -0.74,-1.59 -1.5,-2.29c-0.63,-0.59 -1.46,-1.15 -1.7,-0.41c-0.27,0.85 -0.48,1.69 -0.81,2.27c-0.57,1 -0.72,1.54 -0.91,2.35c-0.29,1.22 -0.26,1.92 -0.51,3.1c-0.11,0.54 -0.41,1.34 -0.61,2.41c-0.18,0.92 -0.17,1.77 -0.17,2.77c0,0.8 0,1.8 0,2.56c0,0.95 -0.04,1.84 0,2.64c0.04,0.92 1,1.69 1.71,1.11c0.74,-0.6 0.29,-1.71 0.29,-2.59c0,-0.87 0,-1.59 0,-2.38c0,-1.26 0,-1.93 0,-2.95c0,-0.79 0,-1.83 0,-2.63c0,-1.03 0,-1.72 0,-2.74c0,-0.93 0.32,-1.12 0.83,-0.3c0.38,0.6 0.46,1.61 0.81,2.42c0.38,0.87 0.33,1.65 0.35,2.65c0.02,0.77 0.28,1.72 0.7,2.35c0.59,0.9 1.31,1.55 1.23,2.49c-0.06,0.81 -1.43,0.97 -1.91,0.32c-0.54,-0.73 -0.49,-1.59 -1.03,-2.39c-0.47,-0.7 -1.17,-1.33 -1.83,-1.99c-0.52,-0.52 -1.29,-1.29 -1.87,-1.87c-0.6,-0.6 -1.4,-1.24 -2.3,-1.3c-0.8,-0.05 -1.7,0 -2.52,0c-0.97,0 -1.73,-0.01 -2.65,0.17c-0.8,0.16 -1.67,0.42 -2.67,1.17c-0.52,0.39 -0.94,0.94 -1.62,1.78c-0.72,0.89 -1.23,1.5 -1.77,2.08c-0.54,0.58 -1.09,1.13 -1.85,1.89c-0.69,0.69 -1.11,1.11 -1.92,1.92c-0.61,0.6 -1.02,1.03 -1.77,1.6c-0.85,0.64 -1.54,1 -2.23,1.42c-0.7,0.43 -1.69,1.13 -2.23,1.66c-0.53,0.52 -1.19,1.39 -1.94,2.15c-0.5,0.5 -1.06,0.93 -1.88,1.56c-0.79,0.6 -1.49,1.21 -2.14,1.77c-0.8,0.68 -1.4,1.09 -2.01,1.43c-0.99,0.54 -1.81,0.86 -2.63,1.41c-0.67,0.44 -1.3,1.64 -2.11,1.35c-0.15,-0.05 -0.08,-1.11 -0.05,-2.01c0.03,-0.85 0.13,-1.67 0.36,-2.64c0.17,-0.72 0.39,-1.48 0.97,-2.52c0.39,-0.71 0.93,-1.35 1.49,-1.99c0.57,-0.67 1.19,-1.33 1.78,-2.06c0.59,-0.74 0.89,-1.12 1.39,-1.92c0.73,-1.17 1.06,-1.99 1.34,-2.77c0.27,-0.74 0.44,-1.46 0.77,-2.38c0.28,-0.78 0.76,-1.66 1.38,-2.44c0.48,-0.6 1.19,-1.02 1.48,-2.08c0.24,-0.88 -0.55,-1.61 -1.26,-1.16c-0.8,0.51 -1.24,1.17 -1.87,1.98c-0.51,0.67 -0.86,1.22 -1.52,2.07c-0.72,0.91 -1.27,1.5 -1.83,2.1c-0.29,0.3 -0.88,0.9 -1.78,1.8c-0.6,0.6 -1.22,1.22 -1.86,1.86c-0.33,0.33 -1.36,1.36 -2.1,2.1c-0.37,0.37 -1.12,1.12 -1.49,1.49c-1.09,1.09 -1.43,1.43 -2.09,2.1c-0.62,0.63 -1.22,1.24 -1.99,2.16c-0.5,0.59 -0.94,1.2 -1.39,1.8c-0.46,0.6 -1.19,1.51 -1.73,2.1c-0.54,0.59 -1.09,1.15 -1.88,1.94c-0.71,0.71 -1.36,1.36 -1.77,1.77c-0.8,0.8 -1.4,1.4 -2,2c-0.8,0.8 -1.38,1.38 -1.91,1.91c-0.72,0.73 -1.43,1.47 -1.48,2.19c-0.07,0.93 0.74,0.63 1.4,-0.11c0.64,-0.72 1,-1.45 1.41,-2.05c0.69,-0.99 1.19,-1.51 1.75,-2.06c0.59,-0.59 1.6,-1.48 1.96,-1.78c0.73,-0.61 1.5,-1.22 1.89,-1.54c0.79,-0.65 1.59,-1.33 2.39,-2.05c0.4,-0.36 1.2,-1.1 1.6,-1.46c0.79,-0.7 1.59,-1.35 2.4,-1.89c0.79,-0.53 1.2,-0.74 2,-1.22c1.2,-0.71 1.61,-0.96 2.4,-1.51c0.79,-0.55 1.18,-0.84 1.92,-1.44c1.08,-0.88 1.73,-1.49 2.34,-2.08c0.58,-0.56 1.37,-1.36 1.86,-1.84c0.68,-0.67 1.12,-1.1 2.11,-1.89c0.52,-0.41 1.32,-0.96 1.81,-1.31c0.96,-0.71 2.34,-1.89 1.76,-2.07c-0.8,-0.25 -0.76,1.34 -1.48,2.07c-0.54,0.55 -1.13,1.19 -1.71,1.93c-0.64,0.81 -1.06,1.43 -1.57,2.07c-0.55,0.69 -1.19,1.4 -1.9,2.14c-0.37,0.38 -1.13,1.13 -1.53,1.49c-1.18,1.08 -1.59,1.41 -2.41,2.05c-0.41,0.32 -1.24,0.94 -1.67,1.23c-1.33,0.92 -1.8,1.21 -2.75,1.8c-0.48,0.3 -0.97,0.6 -1.97,1.2c-1,0.6 -2,1.2 -2.49,1.5c-0.49,0.3 -1.47,0.93 -1.95,1.25c-0.47,0.32 -1.84,1.36 -2.27,1.73c-0.85,0.72 -1.24,1.1 -2.02,1.81c-0.37,0.34 -1.43,1.27 -2.1,1.8c-0.61,0.48 -1.22,0.88 -2.24,1.71c-0.7,0.57 -1.07,1.02 -2.12,1.78c-0.57,0.41 -1.45,0.45 -2.26,1.02c-0.66,0.46 0.37,1.37 1.1,0.94c0.73,-0.42 0.91,-1.45 1.42,-1.96c0.6,-0.61 1.62,-1.38 2.18,-1.79c0.6,-0.43 1.24,-0.87 2.27,-1.61c0.74,-0.53 1.12,-0.81 1.89,-1.39c0.79,-0.59 1.59,-1.19 2.39,-1.79c0.4,-0.3 1.22,-0.92 1.63,-1.23c0.85,-0.65 1.73,-1.33 2.65,-2.05c0.47,-0.37 0.95,-0.75 1.96,-1.49c0.51,-0.38 1.03,-0.76 2.12,-1.46c1.1,-0.7 1.68,-1.01 2.24,-1.32c0.55,-0.31 1.63,-0.88 2.14,-1.16c1.39,-0.76 1.8,-1 2.56,-1.45c0.7,-0.42 1.37,-0.85 2.42,-1.44c0.72,-0.41 1.46,-0.78 2.17,-1.14c0.97,-0.49 1.8,-0.87 2.45,-1.25c0.99,-0.57 1.73,-0.78 2.42,-1.44c0.56,-0.53 -0.46,-0.92 -1.23,-0.62c-0.81,0.32 -1.76,0.75 -2.59,1.04c-0.6,0.21 -1.24,0.41 -2.64,0.8c-0.75,0.21 -1.53,0.42 -2.32,0.68c-0.8,0.27 -1.61,0.59 -2.41,0.96c-0.83,0.39 -1.25,0.6 -2.56,1.32c-0.92,0.51 -1.39,0.79 -1.88,1.06c-1,0.55 -1.5,0.85 -3.12,1.61c-0.55,0.26 -1.12,0.48 -1.68,0.71c-1.13,0.46 -1.69,0.67 -2.24,0.91c-1.59,0.69 -2.08,0.95 -3,1.5c-0.45,0.27 -1.29,0.83 -2.11,1.36c-0.8,0.52 -1.6,1.01 -2.41,1.45c-0.41,0.22 -1.24,0.64 -2.56,1.24c-0.45,0.2 -1.39,0.6 -2.33,1c-0.47,0.2 -1.42,0.59 -2.33,1c-0.88,0.39 -1.72,0.8 -2.13,1c-0.78,0.39 -1.88,0.99 -2.55,1.4c-0.94,0.58 -1.53,0.94 -2.35,1.8c-0.51,0.54 -1.09,1.07 -1.71,1.82c-0.5,0.6 0.4,0.97 1.34,0.7c0.8,-0.23 1.41,-0.5 2.39,-1.05c0.73,-0.41 1.48,-0.93 1.88,-1.19c0.82,-0.53 2.12,-1.32 2.58,-1.56c0.93,-0.48 1.42,-0.7 2.42,-1.15c0.51,-0.23 1.05,-0.45 2.67,-1.2c0.57,-0.26 1.14,-0.53 1.71,-0.81c1.18,-0.57 1.77,-0.87 2.37,-1.17c1.2,-0.6 2.4,-1.2 3,-1.5c0.6,-0.3 1.2,-0.61 1.8,-0.93c0.6,-0.32 2.4,-1.33 3,-1.69c0.6,-0.36 1.2,-0.73 1.79,-1.1c0.59,-0.37 1.17,-0.75 2.33,-1.49c1.12,-0.72 1.66,-1.06 2.2,-1.4c1.05,-0.65 1.56,-0.97 2.07,-1.27c1.01,-0.61 2.01,-1.21 2.51,-1.51c0.98,-0.59 1.47,-0.88 2.36,-1.46c0.81,-0.54 1.52,-1.03 2.22,-1.77c0.52,-0.55 1.34,-1.16 2.03,-1.69c0.69,-0.53 -0.3,-0.79 -1.27,-0.78c-0.7,0.01 -1.42,0.07 -2.7,0.44c-0.8,0.24 -1.21,0.41 -2.06,0.74c-0.83,0.32 -1.92,0.78 -2.78,1.19c-0.51,0.24 -1.47,0.78 -2.25,1.29c-0.57,0.37 -1.16,0.78 -2.04,1.51c-0.61,0.5 -1.2,1.06 -1.8,1.61c-0.6,0.54 -1.5,1.3 -2.39,2c-0.57,0.45 -1.16,0.88 -1.89,1.65c-0.49,0.52 -1.14,1.4 -1.61,1.98c-0.73,0.91 -1.28,1.5 -1.82,2.14c-0.56,0.66 -0.87,1 -1.58,2.2c-0.5,0.84 -0.68,1.29 -1.07,2.17c-0.37,0.83 -0.83,1.92 -1.2,2.77c-0.29,0.65 -0.83,1.58 -0.65,2.52c0.16,0.81 1.2,0.8 2.1,0.8c0.79,0 1.75,0 2.59,0c1,0 1.58,0 2.59,0c1.22,0 1.69,0 2.69,0c0.52,0 1.6,0 2.14,0c1.57,0 2.53,0 3,-0.01c0.91,-0.02 1.82,-0.06 3.24,-0.32c0.51,-0.09 1.57,-0.37 2.12,-0.53c0.55,-0.16 1.64,-0.49 2.18,-0.66c1.52,-0.47 2,-0.6 2.9,-0.86c0.85,-0.25 1.68,-0.48 2.87,-0.95c0.8,-0.32 1.2,-0.5 1.96,-0.89c0.76,-0.38 1.82,-0.98 2.48,-1.39c0.64,-0.39 1.56,-1 2.46,-1.6c0.59,-0.4 1.2,-0.75 1.93,-1.4c0.85,-0.75 1.83,-1.73 1.3,-2.33c-0.62,-0.69 -1.85,-0.1 -2.58,0.01c-1.01,0.16 -1.67,0.35 -2.41,0.56c-0.82,0.23 -2.15,0.67 -2.62,0.84c-0.94,0.34 -1.42,0.53 -2.36,0.92c-1.39,0.58 -1.83,0.79 -2.7,1.2c-0.43,0.2 -1.31,0.63 -2.22,1.08c-0.96,0.48 -2,1 -2.54,1.27c-0.56,0.27 -1.12,0.56 -2.29,1.09c-0.59,0.27 -1.79,0.79 -2.39,1.03c-1.19,0.48 -1.79,0.7 -2.38,0.92c-0.59,0.22 -1.74,0.67 -2.85,1.17c-0.55,0.25 -1.61,0.78 -2.12,1.06c-0.51,0.27 -1.48,0.82 -1.96,1.09c-1.36,0.77 -2.22,1.23 -2.64,1.45c-0.8,0.43 -1.57,0.82 -2.63,1.44c-0.67,0.39 -1.27,0.79 -2.14,1.31c-0.99,0.61 -1.68,0.91 -2.52,1.49c-0.68,0.46 -2.15,0.96 -1.83,1.83c0.27,0.74 1.67,0.17 2.47,0.17c0.9,0 1.84,0.02 2.69,0c0.76,-0.02 1.94,-0.21 2.48,-0.36c0.95,-0.26 1.69,-0.52 2.53,-0.81c0.95,-0.32 1.47,-0.49 2.54,-0.85c0.55,-0.19 1.68,-0.58 2.79,-0.98c0.55,-0.2 1.61,-0.6 2.14,-0.8c1.05,-0.4 1.58,-0.6 2.11,-0.8c1.63,-0.61 2.2,-0.8 2.77,-1c1.16,-0.42 1.75,-0.63 2.35,-0.85c0.6,-0.23 2.4,-0.96 2.99,-1.23c0.6,-0.27 1.18,-0.54 2.33,-1.09c0.56,-0.27 1.1,-0.54 2.63,-1.3c0.47,-0.24 1.39,-0.7 1.84,-0.92c0.91,-0.45 1.37,-0.68 2.84,-1.42c0.52,-0.26 1.6,-0.81 2.14,-1.1c0.54,-0.29 1.08,-0.54 2.52,-1.48c0.44,-0.29 1.24,-0.88 1.92,-1.48c0.62,-0.55 1.42,-1.35 1.9,-1.84c0.65,-0.66 1.25,-1.25 1.8,-2.08c0.49,-0.74 1.23,-1.98 0.6,-2.52c-0.7,-0.6 -1.63,0.05 -2.38,0.63c-0.61,0.48 -1.5,1.29 -2.02,1.69c-0.54,0.41 -1.42,1 -2.31,1.6c-0.6,0.4 -1.21,0.81 -1.84,1.24c-0.65,0.45 -1.69,1.18 -2.42,1.72c-0.77,0.56 -1.15,0.85 -1.94,1.44c-0.8,0.6 -1.6,1.2 -2.4,1.81c-0.4,0.31 -1.2,0.94 -1.6,1.27c-1.21,1.02 -1.6,1.4 -2.4,2.14c-0.4,0.37 -1.2,1.13 -1.6,1.49c-1.19,1.07 -1.6,1.4 -2.39,2.05c-0.39,0.32 -1.16,0.92 -2.24,1.84c-0.35,0.3 -1.02,0.89 -1.65,1.52c-0.63,0.63 -1.52,1.64 -1.82,2c-0.6,0.72 -1.18,1.46 -1.74,2.17c-0.27,0.34 -1.26,1.55 -1.73,2.04c-0.66,0.68 -1.39,1.28 -2.17,1.87c-0.53,0.4 -1.12,0.72 -1.91,1.6c-0.65,0.72 -1.54,1.77 -1.08,2.44c0.45,0.66 0.76,-0.68 1.02,-1.44c0.27,-0.78 1.13,-1.39 1.59,-1.91c0.68,-0.77 1.1,-1.35 1.6,-1.99c0.55,-0.7 1.12,-1.43 1.73,-2.14c0.59,-0.69 1.22,-1.36 1.87,-2.03c0.34,-0.35 1.46,-1.47 1.87,-1.88c0.43,-0.43 1.32,-1.32 1.78,-1.78c0.46,-0.46 0.93,-0.93 2.31,-2.31c0.45,-0.45 0.88,-0.88 1.73,-1.73c0.42,-0.42 0.83,-0.83 1.63,-1.63c0.8,-0.8 1.2,-1.2 1.99,-2c0.39,-0.39 1.14,-1.16 1.49,-1.55c0.99,-1.08 1.55,-1.77 2.05,-2.41c0.48,-0.6 0.9,-1.2 1.94,-2.16c0.51,-0.47 1.12,-0.81 1.98,-1.69c0.55,-0.56 0.78,-1.43 1.28,-2.23c0.04,-0.07 0.25,0.86 0.02,1.75c-0.23,0.87 -0.84,1.32 -1.37,1.94c-0.8,0.95 -1.19,1.5 -1.61,2.06c-0.66,0.88 -1.4,1.78 -1.93,2.38c-0.54,0.6 -1.11,1.18 -1.88,2.1c-0.5,0.59 -0.96,1.22 -1.46,1.87c-0.27,0.34 -1.2,1.46 -1.57,1.87c-0.79,0.87 -1.22,1.32 -1.66,1.78c-0.88,0.93 -1.32,1.39 -2.15,2.31c-0.39,0.44 -1.12,1.3 -1.46,1.72c-0.65,0.8 -1.26,1.57 -1.87,2.28c-0.59,0.69 -1.19,1.33 -1.76,1.96c-0.55,0.61 -1.32,1.5 -1.77,2.11c-0.43,0.58 -0.99,1.41 -1.58,2.42c-0.38,0.66 -0.66,1.3 -1.19,2.28c-0.38,0.71 -1.09,1.41 -0.7,1.41c0.85,0 1.13,-1.03 1.61,-1.6c0.65,-0.76 1.2,-1.22 1.93,-1.94c0.48,-0.48 1.03,-1.03 1.68,-1.62c1.1,-1.01 1.52,-1.36 1.94,-1.72c0.88,-0.74 1.33,-1.11 2.23,-1.86c0.44,-0.37 1.28,-1.08 2.03,-1.77c0.71,-0.64 1.35,-1.27 1.66,-1.58c0.91,-0.9 1.52,-1.5 2.1,-2.12c0.58,-0.62 1.16,-1.25 1.89,-2.31c0.49,-0.71 0.69,-1.09 1.07,-1.82c0.7,-1.32 0.94,-1.9 1.35,-2.62c0.37,-0.65 1.12,-1.67 1.67,-2.17c0.76,-0.68 1.24,-0.98 0.91,-0.3c-0.37,0.77 -0.35,1.84 -0.6,2.43c-0.44,1.02 -0.87,1.83 -1.29,2.46c-0.49,0.73 -1.19,1.51 -1.73,2.06c-0.56,0.59 -1.46,1.48 -1.76,1.78c-0.6,0.6 -1.2,1.2 -1.8,1.8c-0.9,0.9 -1.5,1.5 -2.1,2.11c-0.6,0.62 -0.92,0.93 -1.8,1.96c-0.61,0.71 -1.2,1.45 -1.5,1.81c-0.6,0.71 -1.49,1.7 -2.1,2.25c-0.58,0.51 -1.17,0.94 -1.72,1.37c-1.01,0.79 -1.65,1.38 -2.2,1.92c-0.73,0.72 -1.88,0.87 -2.32,1.65c-0.37,0.66 1,0.68 1.53,0.07c0.58,-0.66 0.92,-1.5 1.63,-2.24c0.64,-0.66 1.23,-1.04 1.83,-1.51c1.01,-0.81 1.36,-1.12 2.09,-1.8c0.38,-0.35 1.15,-1.08 1.55,-1.44c1.19,-1.09 1.59,-1.43 2.4,-2.1c0.81,-0.67 1.23,-1.01 1.65,-1.36c1.32,-1.11 1.77,-1.53 2.23,-1.96c0.96,-0.89 1.45,-1.35 1.96,-1.82c0.51,-0.47 1.03,-0.95 2.12,-1.85c0.55,-0.45 1.68,-1.31 2.25,-1.73c0.56,-0.42 1.13,-0.82 1.68,-1.23c0.54,-0.4 2.07,-1.6 2.54,-2c0.45,-0.39 1.3,-1.18 1.68,-1.57c0.73,-0.74 1.37,-1.46 1.92,-2.15c0.51,-0.63 1.14,-1.54 1.77,-2.32c0.58,-0.72 1.24,-1.24 1.67,-2c0.45,-0.8 0.39,-1.94 -0.37,-2.16c-0.86,-0.26 -1.87,-0.05 -2.62,0.44c-0.57,0.37 -1.12,0.99 -2.1,1.76c-0.53,0.41 -1.13,0.82 -1.8,1.2c-1.1,0.63 -1.95,1 -2.39,1.2c-0.91,0.41 -1.84,0.8 -2.31,1c-1.36,0.59 -2.23,1 -2.65,1.21c-0.83,0.42 -1.64,0.86 -2.44,1.36c-0.81,0.51 -1.62,1.07 -2.04,1.35c-0.87,0.59 -1.32,0.9 -2.8,1.78c-0.52,0.31 -1.07,0.6 -1.62,0.91c-1.12,0.62 -1.69,0.94 -2.26,1.27c-1.12,0.67 -2.2,1.4 -2.73,1.77c-0.52,0.37 -1.04,0.76 -2.05,1.55c-0.51,0.39 -1.5,1.2 -2,1.6c-0.99,0.79 -1.48,1.19 -1.96,1.58c-0.47,0.38 -1.38,1.13 -2.21,1.85c-0.77,0.67 -1.45,1.31 -2.08,1.88c-0.57,0.51 -1.28,1.23 -2,1.59c-0.96,0.48 -1.27,-0.41 -1.26,-1.19c0.02,-0.98 0.13,-1.71 0.5,-2.61c0.32,-0.77 0.8,-1.6 1.06,-2.04c0.54,-0.92 0.83,-1.39 1.74,-2.74c0.3,-0.44 0.9,-1.29 1.2,-1.7c0.6,-0.82 0.9,-1.22 1.8,-2.42c0.6,-0.81 0.9,-1.21 1.46,-2.07c0.29,-0.44 1.08,-1.86 1.31,-2.37c0.48,-1.06 0.69,-1.62 0.9,-2.18c0.42,-1.13 0.61,-1.7 1.02,-2.81c0.4,-1.09 0.6,-1.62 0.8,-2.15c0.4,-1.08 0.62,-1.62 1.2,-3.35c0.21,-0.61 0.4,-1.23 0.59,-1.86c0.19,-0.63 0.54,-1.85 0.69,-2.43c0.4,-1.54 0.57,-2.35 0.64,-3.01c0.09,-0.8 0.07,-1.79 0.07,-2.62c0,-0.91 0,-1.92 0,-2.64c0,-0.73 0,-1.81 0,-2.78c0,-0.81 0.34,-1.73 -0.01,-2.69c-0.27,-0.76 -1.4,-0.78 -2.29,-0.64c-0.93,0.14 -1.49,0.74 -2.34,1.02c-0.84,0.28 -1.58,0.58 -2.56,1.07c-0.6,0.3 -1.4,0.71 -2.4,1.2c-0.63,0.31 -1.56,0.71 -2.35,1c-0.85,0.31 -1.44,0.5 -2.64,0.9c-0.59,0.2 -1.45,0.47 -2.48,0.9c-0.68,0.28 -1.48,0.64 -2.29,1.3c-0.68,0.55 -1.3,1.41 -0.64,1.6c0.77,0.22 1.7,0 2.6,0c0.92,0 1.72,0 2.65,0c0.92,0 1.71,0.03 2.56,-0.04c1.19,-0.09 1.79,-0.24 2.67,-0.46c0.84,-0.21 1.84,-0.41 2.52,-0.5c1.17,-0.16 1.96,-0.35 2.5,-0.52c0.82,-0.26 1.82,-0.67 2.69,-1.08c0.82,-0.39 1.61,-0.8 2.21,-1.1c1,-0.5 1.78,-0.87 2.58,-1.4c0.66,-0.44 1.57,-0.62 2.31,-0.95c0.81,-0.36 0.83,-2.02 0.06,-1.89c-0.92,0.16 -1.2,1.07 -1.76,1.81c-0.52,0.7 -1.07,1.53 -1.61,2.15c-0.38,0.44 -1.18,1.4 -1.58,1.94c-0.42,0.58 -0.85,1.2 -1.56,2.21c-0.52,0.72 -1.09,1.47 -1.4,1.85c-0.65,0.79 -0.99,1.2 -2.18,2.38c-0.42,0.41 -1.3,1.2 -1.74,1.6c-0.44,0.4 -1.3,1.17 -2.02,2c-0.68,0.77 -0.95,1.19 -1.46,2c-0.5,0.79 -0.7,1.21 -1.46,2.4c-0.52,0.81 -0.81,1.2 -1.35,2c-0.54,0.8 -1.07,1.59 -1.54,2.4c-0.45,0.79 -0.86,1.59 -1.2,2.4c-0.34,0.79 -0.61,1.59 -0.84,2.38c-0.21,0.75 -0.51,2.08 -0.59,2.91c-0.07,0.69 -0.06,1.71 -0.06,2.51c0,1 0,1.8 0,2.6c0,0.99 0.02,1.9 0.8,2.48c0.65,0.49 1.5,0.89 2.4,0.92c0.96,0.03 1.8,0 2.78,0c0.68,0 1.79,0 2.56,0c0.57,0 1.76,0.04 2.67,-0.03c0.63,-0.05 1.97,-0.45 2.68,-0.82c0.38,-0.2 1.15,-0.69 1.97,-1.2c0.42,-0.26 1.76,-1.03 2.22,-1.26c0.95,-0.48 1.44,-0.69 2.42,-1.19c0.5,-0.25 2,-1.13 2.49,-1.46c0.49,-0.33 1.45,-1.03 1.9,-1.38c0.86,-0.67 1.61,-1.31 2.25,-1.88c0.56,-0.5 1.3,-1.22 2.02,-1.94c0.52,-0.52 1.06,-1.06 1.61,-1.61c0.54,-0.54 1.55,-1.53 1.98,-2c0.6,-0.66 1.26,-1.63 1.6,-2.46c0.23,-0.56 0.5,-1.76 0.56,-2.36c0.09,-0.86 0.09,-2.07 0.09,-2.86c0,-0.84 -0.58,-1.57 -1.03,-0.93c-0.5,0.73 -0.85,1.6 -1.06,2.27c-0.31,0.99 -0.68,1.63 -1.08,2.45c-0.49,0.98 -0.84,1.68 -1.18,2.42c-0.5,1.08 -0.77,1.77 -1.04,2.42c-0.27,0.65 -0.55,1.33 -1.16,2.35c-0.44,0.75 -0.97,1.49 -1.45,2.28c-0.24,0.39 -0.89,1.59 -1.19,2.39c-0.29,0.78 -0.5,1.55 -0.81,2.64c-0.2,0.68 -0.5,1.65 -0.76,2.26c-0.52,1.22 -0.9,1.8 -1.24,2.4c-0.52,0.9 -0.99,1.79 -1.24,2.4c-0.36,0.86 -0.75,1.94 -1.05,2.64c-0.34,0.8 -0.43,1.81 -0.93,2.56c-0.48,0.72 -0.62,-0.27 -0.34,-0.96c0.26,-0.66 0.66,-1.79 0.87,-2.45c0.23,-0.71 0.44,-1.48 1.02,-2.52c0.4,-0.71 0.94,-1.36 1.52,-2.03c0.62,-0.72 1.31,-1.47 2.03,-2.31c0.37,-0.44 0.74,-0.89 1.53,-1.78c0.39,-0.45 0.76,-0.91 1.99,-2.11c0.39,-0.38 1.19,-1.08 1.58,-1.42c0.76,-0.67 1.86,-1.68 2.2,-2.04c0.68,-0.72 0.99,-1.1 1.61,-1.85c0.61,-0.74 1.51,-1.81 1.81,-2.14c0.59,-0.64 1.16,-1.24 1.72,-1.8c1,-1 1.46,-1.43 2.02,-2.08c0.67,-0.78 1.02,-1.67 1.66,-2.27c0.46,-0.43 -0.36,-0.45 -1.17,0c-0.76,0.43 -1.28,1.09 -2,1.67c-0.78,0.62 -1.38,1.02 -1.99,1.46c-1.01,0.71 -1.73,1.23 -2.1,1.5c-0.8,0.58 -1.21,0.89 -2.11,1.52c-0.96,0.68 -1.47,1.04 -2.54,1.78c-0.56,0.39 -1.13,0.78 -1.71,1.18c-0.59,0.41 -1.19,0.83 -2.38,1.72c-0.6,0.45 -1.2,0.91 -2.39,1.85c-0.59,0.46 -1.17,0.93 -1.75,1.38c-0.57,0.44 -1.69,1.28 -2.24,1.67c-0.53,0.38 -1.59,1.08 -2.1,1.42c-0.51,0.34 -1.53,0.99 -2.52,1.69c-0.5,0.35 -1.5,1.09 -2,1.46c-0.5,0.37 -0.99,0.76 -2,1.49c-0.99,0.73 -1.5,1.07 -2.5,1.73c-0.49,0.32 -0.98,0.64 -1.95,1.25c-0.47,0.3 -1.84,1.2 -2.27,1.5c-0.85,0.59 -1.26,0.89 -2.08,1.44c-1.2,0.8 -2,1.28 -2.4,1.5c-0.8,0.44 -1.6,0.85 -2.8,1.46c-0.4,0.2 -1.19,0.6 -1.98,0.96c-0.76,0.34 -1.85,0.74 -2.54,0.87c-0.98,0.19 -1.64,0.18 -3.01,0.39c-0.73,0.11 -1.46,0.29 -2.17,0.43c-1.26,0.25 -2.04,0.33 -2.91,0.35c-1,0.02 -1.75,0 -2.65,0c-1.08,0 -1.75,0 -2.5,0c-1.11,0 -1.91,0.01 -2.79,-0.22c-0.74,-0.19 -1.58,-0.51 -2.46,-0.94c-0.92,-0.46 -1.5,-0.85 -2.1,-1.24c-0.9,-0.59 -1.8,-1.19 -2.4,-1.62c-0.6,-0.43 -1.5,-1.14 -2.1,-1.66c-0.61,-0.54 -1.22,-1.11 -1.88,-1.63c-1.01,-0.79 -1.39,-1.01 -2.15,-1.45c-0.77,-0.44 -1.57,-0.83 -2.76,-1.44c-0.4,-0.2 -1.2,-0.6 -1.96,-1.04c-0.76,-0.44 -1.82,-1.18 -2.48,-1.71c-0.66,-0.53 -1.3,-1.06 -1.64,-1.28c-1.01,-0.67 -1.77,-0.97 -2.52,-1.25c-0.74,-0.28 -2.19,-0.83 -2.84,-1.17c-0.63,-0.33 -1.19,-0.72 -2.24,-1.33c-0.69,-0.4 -1.36,-0.75 -2.34,-1.12c-0.82,-0.31 -1.73,-0.58 -2.75,-0.73c-0.71,-0.11 -1.46,-0.13 -2.21,-0.19c-1.46,-0.12 -2.14,-0.25 -2.79,-0.4c-0.93,-0.21 -1.83,-0.44 -2.74,-0.52c-0.9,-0.08 -1.5,-0.06 -2.7,-0.06c-0.86,0 -1.63,0 -2.74,0c-0.98,0 -1.67,-0.12 -2.64,0c-0.92,0.11 -1.9,0.66 -1.97,1.43c-0.08,0.74 1.22,1.03 1.92,1.29c1,0.38 1.89,0.28 2.52,0.28c1.03,0.01 1.78,0 2.6,0c0.89,0 2.42,0 2.98,0c0.59,0 1.83,0 2.48,0c0.65,0 1.31,0 3.29,0c0.65,0 1.28,0 1.9,0c1.22,0 1.82,0 2.4,0c1.69,0 2.24,0 3.3,0c0.51,0 1.51,0 2.47,0c0.92,0 1.8,0 2.65,0c0.83,0 1.63,0 2.84,0c0.79,0 1.54,0 2.54,0c1,0 1.94,-0.08 2.87,0.01c0.86,0.08 0.89,0.87 0.02,1.16c-0.68,0.23 -1.42,0.63 -2.43,0.78c-0.79,0.12 -1.8,0.02 -2.64,0.09c-0.94,0.08 -1.73,0.32 -2.61,0.57c-0.64,0.19 -1.67,0.5 -2.41,0.68c-0.76,0.19 -1.54,0.38 -2.74,0.54c-0.8,0.1 -1.6,0.14 -2.4,0.16c-0.8,0.02 -2,0 -2.8,0.02c-0.78,0.01 -1.56,-0.01 -2.98,0.22c-0.66,0.1 -1.57,0.37 -2.14,0.49c-1.22,0.27 -2.08,0.28 -3.09,0.28c-0.8,0 -1.8,0 -2.58,0c-0.85,0 -2.41,-0.93 -2.69,0c-0.22,0.74 1.19,0.99 2.07,1c0.91,0.01 1.93,0 2.61,0c0.81,0 1.99,0 2.59,0c0.92,0 1.56,0 2.92,0c0.74,0 1.5,0 2.28,0c1.2,0 1.99,0 2.77,0c0.75,0 2.09,0 2.91,0c0.72,0 1.68,0 2.46,0c0.79,0 1.91,0 2.74,0c0.91,0 2.6,0.94 2.77,0c0.08,-0.48 -1.02,-0.65 -1.76,-1.3c-0.67,-0.58 -1.46,-0.7 -2.37,-0.7c-0.85,0 -1.98,0 -2.65,0c-0.73,0 -1.49,0 -2.69,0c-0.8,0 -1.61,0 -2.44,0c-0.85,0 -2.19,0 -2.65,0c-0.96,0 -1.96,0 -2.47,0c-1.61,0 -2.16,0 -3.29,0c-0.57,0 -1.15,0 -2.29,0c-0.57,0 -2.23,0 -2.77,0c-1.04,0 -1.55,0 -2.53,0c-1.4,0 -1.84,0 -2.71,0c-0.85,0 -1.71,0 -3.02,0c-0.92,0 -1.39,0 -2.33,0c-0.95,0 -1.42,0 -2.78,0c-0.86,0 -1.68,0 -2.46,0c-1.1,0 -2.11,0 -2.76,0c-0.98,0 -2.02,0 -2.75,0c-0.73,0 -1.78,0 -2.71,0c-1.02,0 -1.73,0 -2.73,0c-0.8,0 -1.55,0 -2.67,0c-0.98,0 -1.9,0 -2.65,0c-1.03,0 -1.8,0 -2.71,0c-0.9,0 -1.8,0 -2.7,0c-0.9,0 -1.42,-0.67 -2.21,-0.99c-0.81,-0.32 -1.33,-0.77 -2.09,-1.01c-0.86,-0.26 -1.7,-0.43 -2.4,-1.1c-0.51,-0.49 -1.2,-1.2 -1.9,-1.9c-0.52,-0.52 -1.18,-1.16 -1.83,-1.84c-0.53,-0.56 -1.16,-1.36 -1.54,-1.95c-0.45,-0.72 -1.06,-1.59 -1.52,-2.18c-0.61,-0.79 -1.11,-1.54 -1.46,-2.03c-0.76,-1.05 -1.3,-1.67 -1.82,-2.51c-0.34,-0.54 -0.66,-1.19 -1.04,-1.86c-0.77,-1.32 -1.18,-1.88 -1.77,-2.6c-0.36,-0.44 -1.15,-1.44 -1.52,-2.06c-0.39,-0.66 -0.98,-1.67 -1.33,-2.19c-0.51,-0.78 -1.16,-1.64 -1.65,-2.26c-0.53,-0.68 -0.99,-1.56 -1.41,-2.04c-0.69,-0.8 -1.52,-0.97 -2.47,-1.46c-0.68,-0.35 -1.26,-1.02 -2.15,-1.03c-0.9,-0.01 -1.99,-0.21 -2.47,0.45c-0.54,0.73 -0.61,1.55 -0.86,2.55c-0.2,0.8 -0.15,1.46 -0.17,2.69c-0.01,0.56 -0.03,1.48 -0.17,2.48c-0.1,0.72 -0.34,1.83 -0.48,2.58c-0.2,1.08 -0.29,1.77 -0.33,2.75c-0.03,0.65 -0.02,1.67 -0.02,2.75c0,0.75 0,1.49 0,2.58c0,0.68 0,1.65 0,2.57c0,0.9 0,1.79 0,2.64c0,1.04 0,1.94 0,2.56c0,1 0.01,1.86 0.57,2.8c0.37,0.62 1.01,1.48 1.48,2.19c0.44,0.67 1.32,1.09 2.06,1.61c0.7,0.49 1.54,0.78 2.37,1.09c0.7,0.25 1.63,0.67 2.62,0.72c0.9,0.04 1.86,0.43 2.61,-0.09c0.62,-0.43 0.68,-1.56 0.93,-2.32c0.32,-0.98 0.35,-1.8 0.35,-2.8c0,-0.82 0,-1.49 0,-2.49c0,-0.84 0,-1.72 0,-2.91c0,-0.6 0.01,-1.5 0,-2.7c0,-0.6 -0.04,-1.54 -0.17,-2.19c-0.22,-1.05 -0.53,-1.77 -0.85,-2.51c-0.32,-0.75 -0.83,-1.83 -1.22,-2.84c-0.25,-0.63 -0.45,-1.25 -0.86,-2.46c-0.2,-0.59 -0.41,-1.47 -1,-2.56c-0.35,-0.63 -1.02,-1.45 -1.7,-1.86c-0.78,-0.47 -1.25,-1.14 -2.2,-1.29c-0.75,-0.11 -1.65,0 -2.52,0c-0.98,0 -1.81,-0.06 -2.69,0.04c-1,0.11 -1.62,0.36 -2.39,0.85c-0.84,0.54 -1.41,1.11 -1.91,1.71c-0.64,0.77 -1.05,1.58 -1.59,2.38c-0.44,0.66 -0.74,1.52 -0.95,2.37c-0.22,0.92 -0.89,1.75 -0.95,2.54c-0.07,0.94 -0.01,1.63 0,2.59c0.01,1 0.63,1.35 1.5,1.54c0.85,0.19 1.35,0.84 2.16,1.27c0.77,0.41 1.76,0.61 2.57,0.67c0.87,0.06 1.76,0.04 2.66,0.04c0.9,0 1.5,0 2.7,0c0.88,0 1.72,0.02 2.71,0c0.84,-0.02 1.96,-0.15 2.4,-0.8c0.47,-0.7 0.29,-1.72 0.29,-2.68c0,-0.69 0,-1.76 0,-2.62c0,-0.79 0.19,-1.78 -0.17,-2.73c-0.29,-0.79 -1.28,-1.04 -2.03,-1.45c-0.65,-0.35 -1.57,-0.72 -2.46,-1.07c-0.57,-0.22 -1.53,-0.77 -2.34,-1.12c-0.59,-0.26 -1.6,-0.49 -2.4,-0.52c-1,-0.04 -1.84,0 -2.77,0c-0.79,0 -1.61,-0.01 -2.67,0c-0.94,0.01 -1.63,-0.01 -2.85,0.29c-0.54,0.13 -1.39,0.36 -2.17,1.03c-0.71,0.61 -0.99,1.31 -1.63,2.08c-0.66,0.79 -1.41,1.38 -1.87,1.98c-0.56,0.73 -0.64,1.65 -0.65,2.63c-0.01,0.79 0,1.83 0,2.59c0,0.91 -0.2,1.93 0.36,2.71c0.49,0.68 1.44,0.8 2.14,1.2c0.8,0.46 1.83,0.67 2.51,0.85c0.81,0.22 1.98,0.5 2.59,0.56c0.92,0.09 1.56,0.08 2.92,0.09c0.74,0 1.5,0 2.28,0c1.2,0 2,0.01 2.8,-0.01c0.8,-0.02 1.6,-0.04 2.8,-0.21c0.79,-0.11 1.56,-0.28 2.29,-0.48c0.99,-0.27 1.82,-0.57 2.53,-0.93c0.97,-0.49 1.74,-1.01 2.29,-1.38c0.83,-0.57 1.6,-1.16 2.25,-1.78c0.61,-0.58 1.24,-1.39 1.61,-1.99c0.45,-0.72 1.17,-1.52 1.47,-2.38c0.29,-0.82 0.17,-1.83 0.17,-2.62c0,-0.73 0.07,-1.71 0,-2.69c-0.06,-0.81 -0.84,-1.12 -1.66,-1.68c-0.69,-0.47 -1.33,-0.83 -2.13,-0.83c-0.9,0 -1.82,-0.14 -2.74,0.04c-0.83,0.17 -1.47,0.67 -2.24,1.14c-0.53,0.33 -1.51,0.96 -2.44,1.4c-0.93,0.44 -1.74,0.7 -2.3,0.95c-0.89,0.4 -1.79,0.99 -2.38,1.47c-0.61,0.5 -1.19,1.06 -2.1,1.82c-0.59,0.49 -1.2,0.91 -1.73,1.39c-0.98,0.89 -1.32,1.45 -1.75,2.27c-0.42,0.81 -0.82,1.59 -1.35,2.26c-0.5,0.65 -1.21,1.4 -1.63,2.22c-0.43,0.83 -0.54,1.72 -0.54,2.66c0,0.85 -0.09,1.79 0.61,2.38c0.69,0.58 1.55,0.83 2.41,0.99c0.98,0.18 1.78,0.46 2.44,0.65c0.95,0.28 1.79,0.33 2.7,0.35c1,0.02 1.72,0 2.45,0c1.08,0 2.05,0.01 2.88,0c0.76,-0.02 1.84,-0.15 2.82,-0.35c0.73,-0.15 1.5,-0.34 2.69,-0.64c0.8,-0.2 1.58,-0.39 2.33,-0.64c0.71,-0.23 1.66,-0.64 2.4,-1.2c0.7,-0.53 1.27,-1.16 1.87,-1.76c0.6,-0.6 1.41,-1.39 1.99,-2c0.55,-0.59 1.17,-1.38 1.34,-2.2c0.16,-0.79 0.07,-1.8 0.07,-2.6c0,-1 0,-1.8 0,-2.8c0,-0.78 0.1,-1.79 -0.06,-2.55c-0.19,-0.93 -0.53,-1.69 -1.24,-2.49c-0.61,-0.69 -1.2,-1.09 -2.03,-1.6c-0.62,-0.37 -1.67,-0.17 -2.48,-0.17c-0.87,0 -1.88,0 -2.73,0c-0.62,0 -1.98,-0.01 -2.72,0c-0.76,0.01 -1.55,0.02 -2.74,0.16c-0.8,0.1 -1.6,0.26 -2.4,0.44c-0.8,0.18 -2,0.48 -2.8,0.69c-0.79,0.21 -1.56,0.41 -2.64,0.86c-0.69,0.29 -1.34,0.66 -1.96,1.08c-0.62,0.42 -1.51,1.17 -2.11,1.71c-0.6,0.54 -1.19,1.11 -2.1,1.88c-0.59,0.49 -1.22,0.9 -1.99,1.62c-0.72,0.68 -1.22,1.49 -1.47,2.07c-0.38,0.87 -0.65,1.78 -0.93,2.66c-0.26,0.81 -0.57,1.85 -0.61,2.62c-0.05,0.9 -0.05,1.87 0.29,2.69c0.29,0.69 1.19,1.36 1.92,1.53c0.98,0.23 1.6,0.43 2.47,0.79c1,0.41 1.54,0.63 2.42,0.84c1.18,0.29 1.8,0.32 2.73,0.35c0.65,0.02 2.05,0.01 2.79,0.01c0.75,0 1.49,0 2.55,0c1,0 1.65,0 2.99,0c0.72,0 1.46,0 2.21,-0.07c0.74,-0.07 1.83,-0.32 2.79,-0.8c0.64,-0.32 1.24,-0.72 2.14,-1.33c0.89,-0.6 1.47,-1 1.93,-1.49c0.88,-0.93 1.09,-1.55 1.52,-2.36c0.55,-1.04 1.1,-1.72 1.39,-2.21c0.6,-1.03 0.72,-1.7 0.84,-2.76c0.09,-0.73 0.17,-1.82 0.3,-2.49c0.19,-0.97 0.42,-1.57 0.59,-2.79c0.13,-0.89 0.12,-1.5 0.12,-2.7c0,-0.9 0.02,-1.5 -0.09,-2.4c-0.14,-1.21 -0.34,-1.8 -0.62,-2.7c-0.28,-0.9 -0.6,-1.8 -0.8,-2.42c-0.31,-0.96 -0.6,-2 -0.8,-2.73c-0.2,-0.75 -0.39,-1.5 -0.7,-2.58c-0.19,-0.68 -0.45,-1.62 -0.8,-2.39c-0.44,-0.99 -0.95,-1.49 -1.5,-2.42c-0.39,-0.67 -0.56,-1.65 -1.13,-2.32c-0.5,-0.59 -1.39,-1.02 -1.57,-1.83c-0.2,-0.88 0,-1.8 0,-2.7c0,-0.91 0,-1.82 0,-2.5c0,-1.12 0.06,-1.89 0.35,-2.65c0.34,-0.87 0.55,-1.74 0.87,-2.67c0.24,-0.7 0.84,-1.47 1.34,-2.27c0.43,-0.68 1.67,-1.88 1.03,-2.35c-0.6,-0.44 -0.59,1.42 -0.59,2.15c0,0.99 0,1.81 0,2.47c0,1.26 -0.07,2.08 0.17,2.98c0.19,0.71 0.85,1.66 1.13,2.34c0.32,0.77 0.69,1.83 1,2.53c0.29,0.65 0.79,1.66 1.1,2.25c0.39,0.73 1.04,1.56 1.6,2.38c0.43,0.64 0.54,1.63 1.39,2.18c0.51,0.33 0.68,-0.78 0.39,-1.66c-0.24,-0.72 -0.78,-1.68 -1.08,-2.28c-0.4,-0.8 -0.9,-1.8 -1.2,-2.4c-0.5,-1 -0.77,-1.62 -1.26,-2.4c-0.52,-0.83 -1.08,-1.39 -1.59,-2c-0.65,-0.78 -1.09,-1.61 -1.65,-2.43c-0.46,-0.67 -1.1,-1.27 -1.7,-1.87c-0.7,-0.7 -1.22,-1.39 -1.9,-1.86c-0.81,-0.56 -1.41,-1.55 -0.68,-1.35c0.82,0.22 1.15,1.33 1.89,1.71c0.79,0.42 1.64,0.82 2.56,1.37c0.52,0.31 1.35,0.84 1.94,1.18c0.89,0.5 1.8,0.9 2.4,1.15c0.9,0.38 1.81,0.81 2.4,1.15c0.88,0.51 1.41,0.88 2.42,1.46c0.66,0.38 1.68,0.9 2.29,1.18c0.79,0.37 1.81,0.57 2.56,0.73c0.96,0.2 1.41,0.93 0.84,0.47c-0.63,-0.5 -1.39,-0.94 -2.1,-1.6c-0.59,-0.55 -1.4,-0.9 -2.2,-1.26l-0.7,-0.64l-0.6,-0.6l-0.7,-0.7" fill="none" id="svg_17" stroke="#ffffff" stroke-width="10"/>
  <path d="m208.56,193.9c28.97,-0.08 56.47,-13.66 73.56,-36.33c31.1,-41.26 8,-78.39 7.76,-78.77a4.94,5.18 0 0 0 -8.96,1.88c-0.21,1.11 -5.48,27.27 -37.03,27.36c-10.27,0.03 -19.48,1.2 -27.44,3.45c-6.99,-8.55 -16.97,-14.47 -28.47,-15.81c-15.65,-1.82 -30.82,5.32 -40.02,18.22c-8.23,-11.5 -21.08,-18.33 -35.16,-18.29c-12.9,0.04 -24.49,5.91 -32.51,15.24c-6.98,-1.54 -14.81,-2.3 -23.37,-2.28c-31.28,0.09 -36.95,-26.06 -37.18,-27.15a4.94,5.18 0 0 0 -8.97,-1.83c-0.25,0.39 -6.03,9.66 -7.85,24.01c-1.67,13.17 -0.24,33.34 16.06,54.72c17.22,22.58 44.79,36 73.76,35.92l1.01,0c14.2,18.36 32.99,35.98 52.34,46.05a4.94,5.18 0 0 0 4.57,-0.09c19.74,-11.37 38.51,-27.79 52.92,-46.27l4.97,-0.01zm35.37,-75.5c24.3,-0.07 36.35,-13.4 42.03,-23.75a53.24,55.82 0 0 1 2.38,21.59l-25.94,10.47a4.94,5.18 0 0 0 1.8,10.02c0.58,0 1.19,-0.11 1.77,-0.34l20.18,-8.16c-1.22,4.2 -2.99,8.57 -5.44,13.06l-28.12,11.35a4.94,5.18 0 0 0 1.8,10.02c0.58,0 1.19,-0.11 1.77,-0.34l13.33,-5.39c-14.76,16.07 -35.93,25.75 -58.35,26.51c9,-13.57 14.61,-26.63 15.69,-36.88a43.68,45.79 0 0 0 -4.51,-25.92c6.36,-1.47 13.6,-2.23 21.61,-2.25zm-212.31,39.21l13.36,5.31a4.94,5.18 0 0 0 6.38,-3.01a4.94,5.18 0 0 0 -2.87,-6.69l-28.21,-11.19c-2.48,-4.5 -4.29,-8.86 -5.55,-13.06l20.29,8.07a4.94,5.18 0 0 0 6.38,-3.01a4.94,5.18 0 0 0 -2.87,-6.69l-26.11,-10.36a52.28,54.81 0 0 1 2.31,-21.66c5.73,10.34 17.85,23.68 42.22,23.61c6.15,-0.02 11.89,0.41 17.11,1.25a43.68,45.79 0 0 0 -5.09,21.62c0.03,10.66 6.61,26.03 17.12,41.79c-20.93,-1.59 -40.52,-10.94 -54.48,-25.97zm116.57,72.13c-37.11,-20.59 -69.27,-68.78 -69.33,-87.97c-0.06,-19.7 15.19,-35.77 33.96,-35.82c13.16,-0.04 24.93,7.68 30.72,20.14a4.94,5.18 0 0 0 4.46,2.92l0,0a4.94,5.18 0 0 0 4.44,-2.94c6.25,-13.69 20.08,-21.76 34.45,-20.09c18.67,2.18 32.18,19.86 30.11,39.44c-3.15,29.84 -41.87,67.97 -68.81,84.33z" data-original="#000000" fill="#b00000" id="svg_8"/>
 </g>
</svg>