<svg xmlns="http://www.w3.org/2000/svg" version="1.1" xmlns:xlink="http://www.w3.org/1999/xlink" width="512" height="512" x="0" y="0" viewBox="0 0 24 24" style="enable-background:new 0 0 512 512" xml:space="preserve" class=""><g><path d="M6 22h12a4.004 4.004 0 0 0 4-4V8a4.004 4.004 0 0 0-4-4h-1V3a1 1 0 0 0-2 0v1H9V3a1 1 0 0 0-2 0v1H6a4.005 4.005 0 0 0-4 4v10a4.005 4.005 0 0 0 4 4zM4 11h16v7a2.002 2.002 0 0 1-2 2H6a2.002 2.002 0 0 1-2-2z" fill="#04c5bf" opacity="1" data-original="#000000" class=""></path></g></svg>